<?xml version="1.0" encoding="UTF-8" standalone="no"?>
<svg
   xmlns:dc="http://purl.org/dc/elements/1.1/"
   xmlns:cc="http://creativecommons.org/ns#"
   xmlns:rdf="http://www.w3.org/1999/02/22-rdf-syntax-ns#"
   xmlns:svg="http://www.w3.org/2000/svg"
   xmlns="http://www.w3.org/2000/svg"
   version="1.1"
   id="svg7945"
   viewBox="0 0 1201.6123 1444.5719"
   height="407.69031mm"
   width="339.1217mm">
  <defs
     id="defs7947" />
  <metadata
     id="metadata7950">
    <rdf:RDF>
      <cc:Work
         rdf:about="">
        <dc:format>image/svg+xml</dc:format>
        <dc:type
           rdf:resource="http://purl.org/dc/dcmitype/StillImage" />
        <dc:title></dc:title>
      </cc:Work>
    </rdf:RDF>
  </metadata>
  <g
     transform="translate(2.1839881,276.54637)"
     id="layer1">
    <path
       id="path8504"
       d="m 759.98849,1166.2653 c -0.52769,-1.6627 -1.90761,-1.7933 -16.81739,-1.5917 -11.68828,0.158 -17.42916,-0.1703 -20.47462,-1.1708 -2.71111,-0.8907 -5.04716,-1.0832 -6.5,-0.5356 -1.24734,0.4701 -5.4179,0.6189 -9.2679,0.3306 -3.85,-0.2884 -8.35,-0.4743 -10,-0.4133 -18.89741,0.6992 -59.55202,-0.7221 -64.02911,-2.2385 -1.34286,-0.4548 -2.78841,-0.029 -4.27419,1.2599 -1.94241,1.6846 -2.81475,1.809 -6.47088,0.9225 -2.3242,-0.5636 -6.92582,-1.1566 -10.22582,-1.3178 -7.007,-0.3424 -22.41429,-1.8396 -34.5,-3.3527 -4.675,-0.5852 -12.775,-1.3166 -18,-1.6252 -5.225,-0.3087 -10.85,-0.7218 -12.5,-0.918 -1.65,-0.1962 -7.95,-0.6391 -14,-0.9842 -11.95262,-0.6818 -20.23041,-1.5269 -45.5,-4.6455 -9.075,-1.1199 -19.2,-2.1807 -22.5,-2.3572 -3.3,-0.1765 -8.025,-1.0228 -10.5,-1.8807 -2.475,-0.8579 -8.775,-2.3107 -14,-3.2286 -9.94943,-1.7477 -11.25548,-1.9414 -19.70467,-2.9229 -9.3476,-1.0858 -17.67268,-3.2654 -24.52337,-6.4205 -3.70043,-1.7042 -7.62127,-3.0986 -8.71298,-3.0986 -2.11348,0 -10.90426,-3.1369 -15.05898,-5.3737 -1.375,-0.7402 -6.1,-1.9093 -10.5,-2.5979 -4.47034,-0.6995 -9.18458,-2.0946 -10.68486,-3.1619 -1.47668,-1.0504 -3.05168,-1.8144 -3.5,-1.6977 -1.82208,0.4743 -7.48448,-1.4767 -13.71677,-4.7262 -3.63145,-1.8934 -7.63667,-3.4426 -8.9005,-3.4426 -1.26383,0 -2.76694,-0.4691 -3.34025,-1.0424 -0.72318,-0.7232 -1.43437,-0.57 -2.32245,0.5 -0.70403,0.8483 -1.75203,1.5424 -2.32887,1.5424 -0.57685,0 -1.8187,0.6967 -2.75967,1.5483 -1.0395,0.9407 -4.58147,1.789 -9.02625,2.1616 -5.91029,0.4955 -7.73166,1.0624 -9.48256,2.9517 -1.25358,1.3526 -3.31978,2.3384 -4.90136,2.3384 -2.96951,0 -9.53646,-2.7526 -9.53646,-3.9973 0,-0.4232 -0.842,-0.9896 -1.87112,-1.2587 -1.04108,-0.2723 -3.33134,-3.3184 -5.16281,-6.8667 -1.81044,-3.5075 -4.68093,-9.0773 -6.37888,-12.3773 -1.69796,-3.3 -3.76219,-6.1372 -4.58719,-6.305 -2.73525,-0.556 -3.99885,-3.4146 -3.5925,-8.1268 1.98154,-22.979 2.96005,-28.8555 6.10449,-36.6613 5.04334,-12.5196 5.73207,-17.2312 3.20231,-21.9069 -0.59516,-1.1 -1.20093,-3.9283 -1.34617,-6.2851 -0.14524,-2.3568 -0.70613,-5.7318 -1.24643,-7.5 -0.5403,-1.7682 -1.75851,-5.9149 -2.70714,-9.21491 -0.94863,-3.3 -2.32998,-7.418 -3.06967,-9.1511 -0.73969,-1.7332 -1.34489,-4.0323 -1.34489,-5.1093 0,-2.2223 -7.61651,-24.1703 -11.01442,-31.7396 -1.2345,-2.75 -2.61165,-6.575 -3.06035,-8.5 -2.98552,-12.8086 -3.82428,-15.9344 -5.23253,-19.49999 -0.8689,-2.2 -2.53892,-7.825 -3.71115,-12.5 -1.17223,-4.675 -2.96221,-11.425 -3.97773,-15 -1.96708,-6.9248 -4.52173,-22.9776 -5.49037,-34.5 -0.67423,-8.0203 -2.15355,-19.3722 -3.62288,-27.8009 -0.67802,-3.8894 -0.68093,-7.514 -0.009,-11 0.55131,-2.8595 1.51493,-11.9491 2.14137,-20.1991 0.62643,-8.25 2.26807,-20.175 3.64808,-26.5 1.38001,-6.325 2.69998,-13.9159 2.93327,-16.8686 0.23328,-2.9528 0.66928,-5.7653 0.96887,-6.25 0.29959,-0.4848 0.1163,-0.8814 -0.40731,-0.8814 -2.0172,0 -2.24941,-3.4291 -0.33581,-4.9589 1.06027,-0.8476 2.1779,-2.6661 2.48364,-4.0411 0.30573,-1.375 1.47208,-5.65 2.5919,-9.5 1.11981,-3.85 2.05257,-8.575 2.07278,-10.5 0.0202,-1.925 0.93367,-6.425 2.02989,-10 1.09623,-3.575 2.28734,-9.5906 2.64692,-13.3679 0.6226,-6.5403 0.56294,-6.819 -1.25077,-5.8418 -1.04751,0.5643 -2.9955,2.1924 -4.32887,3.6179 -1.33338,1.4255 -3.09909,2.5918 -3.9238,2.5918 -1.27157,0 -6.27945,2.2173 -21.15189,9.3653 -1.375,0.6608 -2.6474,2.2265 -2.82756,3.4793 -0.40921,2.8454 -3.11021,4.018 -4.31138,1.8716 -0.79338,-1.4177 -1.52167,-1.3123 -6.62621,0.9593 -3.15417,1.4036 -7.98485,3.2124 -10.73485,4.0195 -2.75,0.8072 -7.25,2.4984 -10,3.7583 -2.75,1.2599 -7.45921,3.0916 -10.46492,4.0705 -3.0057,0.9788 -7.7307,2.9853 -10.5,4.4588 -2.76929,1.4735 -8.41008,3.7165 -12.53508,4.9845 -19.47102,5.9854 -26.96512,8.9594 -43.23643,17.158 -0.95504,0.4812 -3.265784,0.8749 -5.134994,0.8749 -2.44752,0 -3.82229,0.6467 -4.91276,2.311 -1.22182,1.8647 -2.19738,2.2312 -5.05219,1.8979 -2.38783,-0.2788 -5.38564,0.4328 -9.22164,2.189 -3.12602,1.4312 -6.4742,2.6021 -7.44039,2.6021 -0.96619,0 -2.29471,0.6483 -2.95227,1.4406 -0.65756,0.7923 -1.75404,1.2262 -2.43664,0.9643 -0.68259,-0.262 -3.91219,0.2407 -7.17688,1.1171 -17.34839,4.6569 -20.18116,5.4467 -22.93581,6.3953 -6.68527,2.3022 -25.3443703,5.6844 -27.3225303,4.9526 -1.35849,-0.5025 -2.30566,-2.0363 -2.76302,-4.4742 -0.38276,-2.0403 -1.30482,-4.8765 -2.04903,-6.3027 -3.15745999,-6.0508 -1.49438,-7.655 10.1535103,-9.7937 6.43837,-1.1822 9.89464,-2.426 13.35408,-4.8057 4.27744,-2.9424 4.84984,-3.0896 6.84993,-1.7616 1.94627,1.2923 2.59343,1.2339 5.97976,-0.5396 2.08852,-1.0938 8.0723,-2.943 13.2973,-4.1093 12.06642,-2.6934 16.40079,-3.89 22,-6.0734 2.475,-0.9651 7.2,-2.5557 10.5,-3.5346 3.3,-0.9789 7.35,-2.5565 9,-3.5058 1.65,-0.9493 4.69383,-2.0273 6.764064,-2.3956 2.07024,-0.3683 8.1968,-2.448 13.6146,-4.6217 5.41779,-2.1736 10.9844,-3.952 12.37024,-3.952 3.23578,0 21.54302,-6.4001 28.97258,-10.1287 3.14682,-1.5792 6.20594,-2.8713 6.79804,-2.8713 0.5921,0 3.52994,-1.5694 6.52852,-3.4876 2.99858,-1.9181 5.45196,-3.2899 5.45196,-3.0484 0,0.5473 17.09566,-6.6085 22.46144,-9.4018 2.17879,-1.1342 4.65379,-2.069 5.5,-2.0773 2.47852,-0.024 7.78076,-2.1956 20.03856,-8.2064 14.67737,-7.1971 21.61822,-9.498 24.05714,-7.9749 1.59831,0.9982 1.91046,0.5747 2.86818,-3.891 1.25547,-5.854 1.31146,-6.8147 0.30937,-5.308 -0.40408,0.6076 -5.00969,2.9935 -10.23469,5.3022 -5.225,2.3086 -10.625,4.9498 -12,5.8693 -1.375,0.9196 -2.725,1.709 -3,1.7544 -3.67311,0.6056 -7,1.8171 -7,2.549 0,0.5063 -0.5625,0.9203 -1.25,0.9201 -0.6875,-2e-4 -4.175,1.4176 -7.75,3.1506 -7.36528,3.5704 -9.4521,4.4382 -13,5.4061 -1.375,0.3751 -4.3,1.4879 -6.5,2.4729 -6.36956,2.8519 -14.88455,5.9697 -16.30486,5.9703 -1.21145,5e-4 -6.68306,2.2522 -13.59878,5.5964 -1.597,0.7723 -3.2833,1.4041 -3.74733,1.4041 -0.46403,0 -3.65739,1.3247 -7.09636,2.9439 -3.43897,1.6191 -7.37767,3.1876 -8.75267,3.4856 -2.74409,0.5946 -17.51069,5.7762 -28.5,10.0005 -3.85,1.48 -8.57249,3.1652 -10.49441,3.7449 -1.921934,0.5798 -4.384564,1.6776 -5.472514,2.4396 -1.08795,0.762 -3.11546,1.3954 -4.50559,1.4075 -1.39012,0.012 -4.55249,0.9687 -7.02749,2.1258 -2.475,1.1572 -6.075,2.4543 -8,2.8825 -4.0036,0.8907 -11.86982,3.1816 -17,4.9512 -1.925,0.664 -4.85,1.6639 -6.5,2.222 -1.65,0.5581 -5.7,1.4023 -9,1.876 -3.3,0.4737 -7.35,1.4874 -9,2.2527 -4.15919,1.929 -18.21971,5.9099 -22.74139,6.4387 -7.3458503,0.859 -5.2908103,-6.1619 2.12868,-7.2726 5.13386,-0.7685 16.35024,-4.2037 25.11271,-7.6913 4.125,-1.6418 9.075,-3.3169 11,-3.7226 1.925,-0.4056 4.4,-1.224 5.5,-1.8185 1.1,-0.5945 6.725,-2.9612 12.5,-5.2593 5.775,-2.2981 11.175,-4.7622 12,-5.4756 1.8258,-1.579 11.03233,-5.843 16.5,-7.642 2.2,-0.7238 5.125004,-2.0538 6.500004,-2.9555 1.375,-0.9017 5.875,-2.8011 10,-4.2208 4.125,-1.4197 10.2,-3.5571 13.5,-4.7497 3.3,-1.1927 8.57659,-3.073 11.72575,-4.1786 3.14917,-1.1056 6.87075,-3.0713 8.27019,-4.3682 1.94199,-1.7998 3.24721,-2.2176 5.51257,-1.7645 1.9198,0.384 3.84281,0.021 5.44463,-1.029 1.36207,-0.8925 3.39233,-1.6227 4.51168,-1.6227 1.11935,0 2.87032,-0.8351 3.89105,-1.8559 1.02073,-1.0207 2.93323,-2.1085 4.25,-2.4174 4.41749,-1.0361 12.30268,-3.5997 25.39413,-8.2562 7.15,-2.5431 13.9,-4.8913 15,-5.2182 1.1,-0.3269 3.47619,-1.4174 5.28042,-2.4233 1.80423,-1.006 3.92589,-1.829 4.71481,-1.829 0.78892,0 1.91607,-0.9 2.50477,-2 0.58911,-1.1008 2.09382,-2 3.34662,-2 2.11219,0 6.65338,-3.2345 6.65338,-4.739 0,-0.3635 -0.54,-0.121 -1.2,0.539 -0.66,0.66 -1.97314,1.2 -2.91809,1.2 -0.94495,0 -5.97998,2.25 -11.18896,5 -5.20899,2.75 -10.43375,5 -11.61059,5 -4.59799,0 -36.04299,11.2864 -36.91569,13.25 -0.18334,0.4125 -1.61928,0.75 -3.19099,0.75 -1.5717,0 -3.10782,0.4048 -3.41358,0.8995 -0.30576,0.4948 -2.80732,1.4396 -5.55902,2.0998 -2.75169,0.6601 -5.00308,1.5565 -5.00308,1.992 0,0.4356 -1.2375,1.0883 -2.75,1.4505 -6.31025,1.5113 -19.81982,5.8732 -20.7,6.6836 -0.5225,0.481 -1.66485,0.8746 -2.53856,0.8746 -0.87371,0 -3.37121,0.9316 -5.55,2.0702 -2.17879,1.1385 -5.08644,2.2818 -6.46144,2.5405 -4.13387,0.7778 -18.475244,5.8336 -18.833334,6.6393 -0.18334,0.4125 -1.30834,0.7595 -2.5,0.7711 -1.19167,0.012 -5.31667,1.1346 -9.16667,2.4956 -3.85,1.361 -8.01861,2.4765 -9.26357,2.4789 -1.24496,0 -3.04496,0.4015 -4,0.8868 -0.95504,0.4853 -3.53643,1.3366 -5.73643,1.8917 -2.2,0.5552 -6.46865,1.9581 -9.48588,3.1177 -3.01724,1.1595 -6.4927,2.1082 -7.72325,2.1082 -1.23055,0 -4.16191,0.859 -6.51412,1.9089 -2.35221,1.05 -6.07675,2.3649 -8.27675,2.9222 -2.2,0.5572 -6.41418,1.7232 -9.36483,2.591 -2.95066,0.8679 -6.91946,1.5779 -8.81956,1.5779 -2.96651,0 -3.40955,-0.3035 -3.13516,-2.1479 0.17575,-1.1813 0.99455,-2.4768 1.81955,-2.8788 3.56377,-1.7366 35.85765,-11.9733 37.77232,-11.9733 1.1603,0 2.38776,-0.45 2.72768,-1 0.33992,-0.55 1.53454,-1 2.65472,-1 1.12018,0 3.23113,-0.6376 4.69099,-1.4169 1.45986,-0.7794 6.47929,-2.8714 11.15429,-4.6491 4.675,-1.7777 10.075,-4.0342 12,-5.0144 1.925,-0.9803 5.975,-2.547 9,-3.4817 3.025,-0.9347 6.625,-2.2671 8.000004,-2.9609 1.375,-0.6937 4.525,-2.073 7,-3.0651 2.475,-0.9921 5.69447,-2.6156 7.15437,-3.6078 1.4599,-0.9923 3.39414,-1.8041 4.29831,-1.8041 0.90416,0 3.50672,-0.9 5.78346,-2 2.27673,-1.1 4.82745,-2 5.66826,-2 2.20596,0 10.0956,-3.1365 10.0956,-4.0134 0,-0.4079 -0.72028,-1.3395 -1.60063,-2.0701 -1.33692,-1.1096 -2.62334,-1.0602 -7.80836,0.2997 -3.41425,0.8955 -8.65647,2.7408 -11.64937,4.1006 -5.70403,2.5917 -8.76767,3.829 -10.44164,4.2172 -0.55,0.1275 -7.3,2.2704 -15.000004,4.7619 -14.62345,4.7318 -26.47074,7.7229 -27.75,7.0062 -1.66598,-0.9333 -0.67323,-4.5094 1.40255,-5.0522 1.18391,-0.3096 4.5504,-1.8425 7.48111,-3.4064 2.9307,-1.5639 6.00001,-2.8435 6.82069,-2.8435 0.82068,0 3.41669,-0.8445 5.7689,-1.8767 4.06665,-1.7845 6.25372,-2.5757 20.276754,-7.3354 3.3,-1.1201 8.025,-2.8503 10.5,-3.8449 2.475,-0.9947 9.9,-3.8843 16.5,-6.4215 6.6,-2.5373 12.9,-4.9988 14,-5.4701 1.1,-0.4713 5.15,-2.0782 9,-3.571 3.85,-1.4927 7.9,-3.1087 9,-3.5911 3.09044,-1.3552 24.40452,-8.8793 29.96355,-10.5774 2.72995,-0.8339 7.67995,-2.7757 11,-4.3152 3.32005,-1.5394 7.16145,-3.116 8.53645,-3.5037 1.375,-0.3876 5.65,-2.2139 9.5,-4.05835 9.22114,-4.41774 21.25317,-8.65879 25,-8.81199 2.74144,-0.11209 3.02573,0.18339 3.29851,3.42845 0.40296,4.79372 -1.01958,5.79055 -14.79851,10.36999 -6.325,2.102 -11.97699,4.2014 -12.55997,4.6652 -1.64086,1.3053 -24.32712,9.9137 -26.12621,9.9137 -2.06956,0 -23.81726,8.5625 -28.12098,11.0718 -1.81894,1.0605 -4.60488,1.9282 -6.19098,1.9282 -1.58611,0 -3.12158,0.3847 -3.41216,0.8549 -0.52111,0.8431 -15.22666,6.566 -17.00637,6.6182 -1.64454,0.048 -1.68713,2.1959 -0.0702,3.5378 1.73572,1.4406 8.7354,0.2991 14.85709,-2.4228 1.72136,-0.7653 6.39224,-2.6318 10.37974,-4.1478 3.9875,-1.5159 7.25,-3.2102 7.25,-3.765 0,-0.5547 0.26141,-0.7472 0.58091,-0.4277 1.27667,1.2766 26.31535,-7.2315 36.91909,-12.5451 3.85,-1.9293 10.75772,-4.9518 15.3505,-6.7166 4.59277,-1.7648 9.54277,-3.8309 11,-4.5912 3.46478,-1.8078 8.58885,-1.7752 10.11551,0.064 1.51812,1.8293 0.52453,6.7916 -1.77269,8.8534 -0.93133,0.8359 -3.6352,2.2932 -6.00861,3.2384 -5.65476,2.2521 -4.07181,3.6517 2.28407,2.0196 8.17648,-2.0996 8.05813,-1.7228 12.02459,-38.27689 0.25104,-2.31357 0.11495,-4.41755 -0.30243,-4.6755 -0.41738,-0.25796 -3.44359,0.56299 -6.72491,1.82432 -3.28132,1.26133 -9.56603,3.64925 -13.96603,5.30649 -4.4,1.65724 -11.375,4.36511 -15.5,6.01749 -15.21517,6.09485 -25.12585,8.50779 -27.04817,6.58552 -1.74305,-1.74305 2.11452,-4.99273 7.54817,-6.35871 5.14879,-1.29436 13.97096,-4.69657 21,-8.09851 6.93168,-3.35442 32.83299,-12.89431 35.00975,-12.89431 1.60864,0 5.4847,-13.34652 6.634,-22.84297 0.50967,-4.21137 1.7672,-10.13203 2.79449,-13.15703 2.94083,-8.65962 3.85568,-12.58509 7.03388,-30.18115 1.95919,-10.84698 4.0423,-18.99282 6.08387,-23.79044 3.6257,-8.52027 5.90235,-18.39806 5.92685,-25.71506 0.0209,-6.25122 2.98216,-18.94638 6.02114,-25.81335 1.21701,-2.75 2.50153,-7.25 2.85448,-10 0.52715,-4.10719 1.0253,-5.05467 2.7898,-5.30619 1.18144,-0.16841 2.42478,-1.06841 2.76298,-2 0.3382,-0.9316 1.95153,-4.16881 3.58518,-7.19381 1.63365,-3.025 2.97781,-6.03036 2.98703,-6.67857 0.009,-0.64822 0.57925,-1.77322 1.26675,-2.5 4.44281,-4.69669 10.02355,-13.7272 11.0603,-17.89733 0.35223,-1.41674 2.03112,-4.11674 3.73087,-6 4.914,-5.44452 8.67387,-9.30535 10.6384,-10.9241 1.96762,-1.62128 6.32043,-7.51566 6.32043,-8.55883 0,-0.35189 3.4875,-4.15212 7.75,-8.44493 4.2625,-4.29282 9.55,-9.92038 11.75,-12.5057 6.14026,-7.21568 12.4774,-13.26236 16.72452,-15.95795 4.77985,-3.03371 15.99787,-14.36374 15.31528,-15.4682 -0.36181,-0.58541 -1.90284,-1.06439 -3.4245,-1.06439 -3.64526,0 -6.91968,-3.59708 -9.29928,-10.21564 -3.97113,-11.0452 -6.75266,-19.43369 -7.80375,-23.53436 -0.60798,-2.37197 -1.68788,-4.25 -2.44383,-4.25 -1.91111,0 -2.82855,-2.98167 -1.43434,-4.66159 1.25948,-1.51757 0.52953,-6.08673 -3.16929,-19.83841 -1.03554,-3.85 -2.1839,-10.375 -2.55191,-14.5 -0.368,-4.125 -1.17395,-8.13202 -1.791,-8.9045 -1.67746,-2.09999 -1.5581,-55.13438 0.1281,-56.91693 1.19345,-1.26165 1.6985,-4.58221 1.29158,-8.49181 -0.1038,-0.99728 0.52783,-2.90684 1.40362,-4.24346 0.87578,-1.33662 1.77854,-3.67066 2.00613,-5.18676 1.7706,-11.79524 1.8525,-11.03921 -1.17753,-10.86996 -2.78808,0.15574 -5.88175,1.4633 -20.93573,8.84863 -6.43027,3.15463 -8.97546,3.90919 -11.99642,3.55651 -4.13313,-0.48252 -11.309,1.30164 -15.02317,3.73526 -1.26625,0.82968 -3.76841,3.14164 -5.56037,5.1377 -8.87556,9.88646 -9.43217,10.3347 -12.87619,10.36925 -1.86005,0.0187 -5.18192,0.90339 -7.38192,1.96607 -2.2,1.06268 -4.40023,1.94741 -4.8894,1.96607 -0.48917,0.0187 -3.06456,1.37232 -5.72308,3.00812 -2.65852,1.63581 -6.08329,3.27504 -7.6106,3.64275 -2.73947,0.65954 -10.49545,4.28381 -19.27692,9.00785 -2.475,1.33144 -12.15,6.23749 -21.5,10.90233 -9.35,4.66484 -19.06973,9.59189 -21.59941,10.94901 -2.52968,1.35712 -6.22826,2.66951 -8.21908,2.91644 -1.99082,0.24692 -5.77109,1.57862 -8.40059,2.95934 -2.62951,1.38071 -5.90592,2.8172 -7.28092,3.19221 -4.46582,1.21795 -33.49015,13.76024 -33.83333,14.6204 -0.18334,0.45951 -0.94312,0.83548 -1.68841,0.83548 -0.74529,0 -3.81495,1.35 -6.82147,3 -3.00653,1.65 -6.12914,3 -6.93915,3 -0.81001,0 -2.00894,0.64607 -2.66429,1.43572 -0.65535,0.78965 -2.52602,1.72882 -4.15704,2.08705 -1.63102,0.35824 -6.83227,2.67421 -11.55833,5.14661 -4.72605,2.4724 -11.12299,5.30688 -14.2154,6.29885 -3.09242,0.99197 -10.122584,3.70202 -15.622584,6.02235 -5.5,2.32032 -11.575,4.66445 -13.5,5.20918 -1.925,0.54473 -7.22121,2.74763 -11.76935,4.89533 -4.54815,2.1477 -9.35909,3.90491 -10.69099,3.90491 -1.33189,0 -2.67834,0.41538 -2.99211,0.92306 -0.31377,0.50769 -2.02782,1.23056 -3.80902,1.60638 -1.78119,0.37582 -5.413,1.76045 -8.07069,3.07694 -2.65769,1.31649 -5.83019,2.39362 -7.05,2.39362 -1.21981,0 -2.73692,0.51908 -3.37134,1.1535 -2.37584,2.37584 -7.13625,1.04956 -13.76982,-3.83638 -6.8400903,-5.03804 -8.4005703,-7.7223 -6.5258103,-11.22533 1.40644,-2.62795 10.0639103,-7.09049 13.7658903,-7.09571 3.17578,-0.004 20.53433,-6.62512 24.25575,-9.25127 1.35987,-0.95964 3.83487,-1.75144 5.5,-1.75955 1.66512,-0.008 4.15249,-0.66546 5.52749,-1.46078 1.375,-0.79532 3.175,-1.74577 4,-2.11212 0.825,-0.36634 4.2,-1.89567 7.5,-3.3985 3.3,-1.50284 7.8,-3.29985 10,-3.99336 2.2,-0.69352 6.025,-2.328 8.5,-3.63218 2.475,-1.30418 7.98482,-3.46525 12.24404,-4.80238 4.259224,-1.33714 8.453864,-3.14098 9.321434,-4.00855 0.86756,-0.86756 2.38804,-1.57739 3.37884,-1.57739 2.20498,0 10.75122,-3.69834 11.55625,-5.00091 0.32087,-0.51918 2.47701,-1.50621 4.79142,-2.1934 2.31441,-0.68719 6.45802,-2.43442 9.20802,-3.88274 2.75,-1.44832 7.475,-3.42906 10.5,-4.40165 3.025,-0.97259 11.93639,-4.86276 19.80308,-8.64483 7.86669,-3.78206 14.6732,-6.87647 15.12557,-6.87647 0.45237,0 3.36631,-1.125 6.47543,-2.5 3.10912,-1.375 6.49978,-2.5 7.53479,-2.5 1.8674,0 16.12843,-6.17835 33.7225,-14.60972 5.03876,-2.41465 9.38004,-4.39028 9.6473,-4.39028 0.26726,0 5.7333,-2.475 12.14676,-5.5 6.41345,-3.025 12.09295,-5.5 12.6211,-5.5 1.29764,0 10.28233,-4.68959 16.42347,-8.57228 6.19388,-3.91604 21.05144,-11.42772 22.6032,-11.42772 0.88541,0 21.36075,-9.5978 31.92962,-14.96699 0.84306,-0.42828 3.01278,-1.10375 4.82161,-1.50104 3.93549,-0.86438 15.64008,-6.06609 19.14557,-8.50861 5.28207,-3.68039 12.8026,-5.32737 21.14804,-4.63139 4.31357,0.35974 9.08088,1.12476 10.59402,1.70006 1.51315,0.5753 5.72227,1.03661 9.35362,1.02513 5.59784,-0.0177 7.72723,-0.58536 13.99477,-3.73082 6.95382,-3.48988 20.90955,-7.89193 20.90955,-6.5955 0,2.21582 3.33979,-4.50286 5.08217,-10.22382 1.16133,-3.81313 2.70964,-7.86313 3.44069,-9 0.73105,-1.13686 1.65539,-3.86702 2.05408,-6.06702 0.39869,-2.2 1.68069,-5.350004 2.8489,-7.000004 1.16821,-1.65 3.4628,-5.69303 5.09909,-8.98451 1.63629,-3.29148 3.49952,-6.44148 4.14052,-7 0.641,-0.55852 1.87771,-3.16639 2.74825,-5.79528 0.87054,-2.62888 2.70858,-7.00142 4.08455,-9.71675 1.37596,-2.71534 2.50175,-5.55991 2.50175,-6.32128 0,-0.76136 1.125,-3.50014 2.5,-6.08616 1.375,-2.58601 2.5,-5.11087 2.5,-5.61078 0,-0.49991 1.575,-4.22709 3.5,-8.28262 1.925,-4.05554 3.5,-7.81755 3.5,-8.36002 0,-0.54248 1.33748,-2.75398 2.97218,-4.91446 1.6347,-2.16048 2.9847,-4.31037 3,-4.77754 0.0153,-0.46717 2.27782,-5.5721 5.02782,-11.3442903 2.75,-5.77218 5,-10.80449 5,-11.1829 0,-0.37841 1.97287,-2.69849 4.38415,-5.15572 4.37772,-4.4611397 11.61585,-13.5084597 11.61585,-14.5192697 0,-0.29385 4.55236,-6.47745 10.11635,-13.74135 5.56399,-7.26389 10.50932,-14.23656 10.9896,-15.49482 0.48029,-1.25827 2.00293,-3.95023 3.38365,-5.98214 1.38072,-2.03191 2.5104,-4.48992 2.5104,-5.46224 0,-0.97233 0.5625,-1.77158 1.25,-1.77612 1.3366,-0.009 3.0639,-2.88988 10.9353,-18.23961 2.74931,-5.36132 5.41415,-10.00459 5.92187,-10.31838 0.50772,-0.31379 1.54125,-2.00225 2.29672,-3.75214 2.27652,-5.273066 18.18221,-20.681616 21.34888,-20.681616 0.87436,0 2.30018,-0.64016 3.16849,-1.42258 0.86831,-0.78242 3.37874,-2.08124 5.57874,-2.88627 4.97522,-1.82054 13.65096,-5.33342 19.23328,-7.78772 4.0287,-1.77125 4.18258,-1.99453 3.18424,-4.62036 -0.57697,-1.51754 -3.86679,-5.68955 -7.31072,-9.27112 -3.44393,-3.58157 -6.67684,-7.19775 -7.18424,-8.03596 -0.50741,-0.8382 -2.16006,-2.31107 -3.67256,-3.27305 -1.5125,-0.96198 -2.75,-2.20798 -2.75,-2.7689 0,-1.22984 -7.88469,-11.95569 -9.99945,-13.60265 -0.8253,-0.64274 -3.50754,-3.00524 -5.96053,-5.25 -2.45298,-2.24476 -5.00596,-4.08139 -5.67327,-4.08139 -0.66731,0 -2.6452,-1.20487 -4.39531,-2.67749 -3.00739,-2.53055 -3.14624,-2.94715 -2.53016,-7.59142 0.39523,-2.97935 0.23347,-5.41807 -0.41088,-6.19446 -0.5845,-0.70428 -2.22711,-4.60064 -3.65025,-8.65857 -2.15793,-6.15314 -2.48287,-8.41369 -1.95721,-13.61601 0.83937,-8.3072 6.18279,-17.53629 14.08869,-24.3338 2.19298,-1.88554 4.58214,-3.99075 5.30924,-4.67825 0.72709,-0.6875 1.8951,-1.25 2.59557,-1.25 0.70047,0 2.08807,-0.9 3.08356,-2 0.99549,-1.1 2.27315,-2 2.83926,-2 0.56611,0 2.85887,-0.85326 5.09502,-1.89614 2.23614,-1.04287 5.19072,-2.1217 6.56572,-2.39739 1.375,-0.2757 5.89009,-1.42812 10.03353,-2.56093 7.272,-1.98817 14.07774,-2.36761 15.57689,-0.86845 0.3976,0.3976 1.75765,0.72291 3.02232,0.72291 2.39823,0 9.11144,2.77062 10.90351,4.5 0.56993,0.55 2.35777,2.74902 3.97296,4.88671 l 2.93671,3.8867 1.34194,-3.28872 c 0.73806,-1.8088 3.61562,-5.67103 6.39456,-8.58275 5.84222,-6.12133 10.68226,-8.10606 18.81758,-7.71642 3.025,0.14488 6.175,-0.0181 7,-0.36209 1.87302,-0.78106 3.7422,-1.23702 7.21557,-1.76011 2.85063,-0.42931 7.90316,-1.94146 13.78443,-4.12548 3.19737,-1.18735 11.09295,-2.44272 24.65192,-3.91956 3.26784,-0.35593 6.74205,-0.0311 9.5,0.88827 2.39145,0.79718 10.42308,1.72454 17.84808,2.0608 10.67925,0.48365 15.12939,1.15123 21.2982,3.19504 5.07292,1.68073 8.96684,2.39401 11.14222,2.04099 2.12302,-0.34452 4.11771,-7.5e-4 5.46293,0.94148 1.41176,0.98883 4.20098,1.4224 8.35777,1.29917 3.43139,-0.10172 8.03888,0.27766 10.23888,0.84308 2.2,0.56542 7.6,1.79108 12,2.72369 4.4,0.93261 9.8,2.49799 12,3.47863 2.2,0.98064 5.125,2.28092 6.5,2.88952 3.7731,1.67003 6.3242,3.42863 7.7915,5.37105 0.727,0.9625 1.931,1.75 2.6755,1.75 2.5933,0 9.4468,-5.314 10.4075,-8.0697 0.5321,-1.52644 1.8447,-3.24482 2.9168,-3.81862 3.0134,-1.61272 12.6638,-2.8574 15.1173,-1.94978 1.4182,0.52461 2.9792,0.32835 4.3953,-0.55261 4.1874,-2.60491 22.6179,-0.69451 33.6961,3.49275 1.925,0.7276 5.7916,3.02729 8.5924,5.11043 2.8008,2.08314 5.6133,3.78753 6.25,3.78753 0.6367,0 1.1576,0.41873 1.1576,0.93051 0,0.51178 3.6,4.64849 8,9.19269 4.4,4.5442 8,8.78767 8,9.42994 0,0.64227 1.1194,2.81723 2.4875,4.83323 3.2395,4.77369 4.1955,8.57348 2.4314,9.66376 -0.7489,0.46282 -1.8543,0.41843 -2.4784,-0.0995 -0.7602,-0.63092 -1.4904,-0.13642 -2.2454,1.5206 -0.6154,1.35057 -2.9308,3.59939 -5.1453,4.99738 -2.9743,1.87758 -3.9769,3.14156 -3.8366,4.83685 0.3905,4.71845 -10.6768,21.69456 -14.1434,21.69456 -0.5713,0 -6.0257,4.8375 -12.1209,10.75 -6.0951,5.9125 -15.3621,14.90221 -20.5932,19.97714 -5.9921,5.81316 -9.3899,9.85048 -9.1834,10.91189 0.1803,0.92705 3.7008,3.4154 7.8277,5.53286 4.125,2.11646 7.95,4.18779 8.5,4.60295 6.9484,5.24493 11.6673,9.2671 14.8296,12.64026 4.4593,4.75669 9.5883,14.54399 12.0976,23.084896 0.9695,3.3 2.5339,8.25 3.4765,11 1.411,4.11656 1.675,8.21244 1.4946,23.18142 -0.1377,11.41468 -0.6809,19.45814 -1.4597,21.61181 -1.0857,3.00256 -1.0034,3.75926 0.6605,6.06727 1.0455,1.45028 3.0259,2.9313 4.4009,3.29116 3.1669,0.82885 10.9812,8.75476 13.1603,13.34834 4.1285,8.7027797 8.3445,29.56935 8.7449,43.28144 0.1177,4.02872 0.5672,9.92835 0.999,13.1103 0.6852,5.04947 0.5504,5.93189 -1.0596,6.93736 -1.0145,0.6336 -1.8446,2.00313 -1.8446,3.04341 0,1.86327 -3.3138,7.98374 -5.5921,10.32842 -0.6418,0.66052 -1.4642,2.78578 -1.8276,4.72282 -0.3634,1.93703 -1.2379,3.87161 -1.9433,4.29906 -0.7054,0.42746 -2.9824,2.68166 -5.06,5.00934 l -3.7775,4.23215 5.4693,6.26785 c 6.6221,7.58897 8.2917,10.74251 9.1423,17.267854 0.3584,2.75 1.037,6.96631 1.5079,9.36958 1.0655,5.4379 0.7768,10.29159 -1.2574,21.13834 -0.8759,4.67064 -1.7848,10.51708 -2.0197,12.99208 -0.2349,2.475 -1.3754,7.15795 -2.5345,10.40655 -1.1591,3.2486 -2.1074,6.6406 -2.1074,7.53777 0,0.89718 -1.3317,3.18923 -2.9594,5.09345 -3.692,4.31939 -3.7081,5.1166 -0.2084,10.28205 4.0181,5.93066 6.1863,15.07293 4.9045,20.68018 -1.3427,5.87363 -2.774,17.13376 -3.2414,25.5 -0.2766,4.95 -0.6917,9.9 -0.9226,11 -0.2308,1.1 -0.4541,2.28291 -0.4962,2.62868 -0.042,0.34577 -1.4093,1.18074 -3.0383,1.85548 -1.6289,0.67475 -4.1748,2.86684 -5.6574,4.87132 -1.4826,2.00449 -5.3248,6.20986 -8.5382,9.34528 -3.2134,3.13542 -5.8426,5.9775 -5.8426,6.31574 0,3.18286 8.7241,12.13762 12.78,13.1178 3.2415,0.78339 7.757,3.77615 11.2721,7.47095 1.4036,1.4754 5.4536,4.52114 9,6.76832 3.5463,2.24717 6.9914,4.54492 7.6557,5.1061 0.6643,0.56118 1.4123,1.02033 1.6621,1.02033 0.7857,0 15.1043,8.35165 15.6473,9.1266 0.2845,0.40598 3.3585,2.08183 6.831,3.7241 3.4726,1.64228 7.0649,3.63727 7.9828,4.43332 0.918,0.79605 2.9915,1.7627 4.6078,2.14811 1.6164,0.38542 4.3164,1.83619 6,3.22394 4.13022,3.40431 12.71662,8.59815 20.31122,12.28603 3.4375,1.66923 6.25,3.4598 6.25,3.97904 0,0.51925 0.8641,1.21834 1.9202,1.55355 1.0562,0.3352 3.6393,2.18397 5.7402,4.10839 2.101,1.92441 6.2128,4.63093 9.1374,6.01449 2.9246,1.38357 6.9791,4.10113 9.0099,6.03904 2.0307,1.93791 5.2673,4.34226 7.1923,5.34299 1.925,1.00073 5.6049,4.00222 8.1775,6.66996 2.5727,2.66774 6.8172,6.65044 9.4323,8.85044 2.6151,2.2 8.1617,7.375 12.3258,11.5 4.1641,4.125 9.5946,9.07037 12.0678,10.98971 2.4731,1.91934 5.6216,4.51181 6.9966,5.76104 1.375,1.24923 3.1978,2.4932 4.0506,2.76438 0.8528,0.27119 2.0894,1.95372 2.7479,3.73897 0.6585,1.78524 4.2358,6.41897 7.9494,10.29717 6.7304,7.0286 9.7222,11.3389 13.1708,18.9749 1.8766,4.15519 2.9626,6.36913 9.7973,19.97383 7.5215,14.97184 14.284,31.99048 14.284,35.94767 0,1.48483 1.125,6.05101 2.5,10.14707 1.375,4.09605 2.5,8.90336 2.5,10.68292 0,1.77955 0.4747,4.80757 1.0548,6.72894 1.7252,5.71353 1.9823,7.1054 2.9437,15.94055 0.5055,4.64593 0.7278,11.62093 0.4939,15.5 -0.2339,3.87907 -0.021,8.40285 0.4724,10.05285 0.4938,1.65 1.6507,8.175 2.571,14.5 0.9202,6.325 2.2823,13.3 3.0267,15.5 1.7847,5.27414 5.0967,23.19801 5.913,32 0.357,3.85 1.2786,9.7 2.0479,13 2.1608,9.2681 3.6007,17.3389 4.4603,25 0.4319,3.85 1.2944,9.7952 1.9165,13.2116 0.6221,3.4164 1.3146,9.2664 1.5388,13 0.4035,6.7197 0.7029,9.552 1.9333,18.2884 2.0268,14.3915 3.7623,61.3899 3.6743,99.5 -0.079,34.1435 -0.4158,41.985 -1.973,45.9234 -1.0042,2.5395 -1.2566,13.2105 -0.9009,38.0766 0.031,2.2 -0.021,6.25 -0.1159,9 -0.095,2.75 0.1057,7.25 0.4463,10 0.3407,2.75 0.2499,9.7327 -0.2017,15.5172 -0.4517,5.78447 -0.4848,12.75947 -0.074,15.49997 0.5159,3.4394 0.2438,7.151 -0.8784,11.9828 -0.8941,3.85 -1.5593,9.2975 -1.4781,12.1055 0.081,2.808 -0.514,6.6887 -1.3226,8.6238 -2.9909,7.1583 -5.1277,17.2227 -4.4791,21.0972 0.9635,5.7556 0.2218,10.78831 -2.0411,13.84891 -3.2121,4.3447 -1.9897,19.4315 2.0284,25.0341 1.0687,1.4902 1.9432,3.2244 1.9432,3.8538 0,1.3445 7.0837,15.1906 8.1694,15.9684 1.6423,1.1765 3.8306,12.8665 3.8306,20.4631 0,8.7893 -2.6377,18.3589 -6.0832,22.0697 -1.0542,1.1354 -1.9168,2.5256 -1.9168,3.0893 0,2.2374 -9.698,9.2929 -13.5,9.8215 -2.0503,0.285 -4.5,1.7715 -4.5,2.7305 0,0.9416 -5.7262,6.7942 -6.6476,6.7942 -0.2398,0 -1.3482,0.8498 -2.463,1.8885 -2.1754,2.0266 -16.0864,4.8081 -21.3894,4.2768 -1.65,-0.1653 -6.5772,-1.4162 -10.9494,-2.7796 -4.3721,-1.3635 -11.3694,-2.7428 -15.5494,-3.0651 -7.5305,-0.5807 -7.6233,-0.5584 -10.1481,2.4421 -3.0514,3.6264 -6.4492,5.4826 -14.1156,7.7113 -3.1549,0.9171 -6.3579,2.2893 -7.1178,3.0491 -0.7599,0.7599 -1.574,1.1892 -1.8092,0.954 -0.6997,-0.6996 -13.0294,1.444 -16.8105,2.9226 -5.9451,2.3249 -24.2166,5.7694 -29.853,5.6279 -3.0841,-0.077 -8.1395,0.7657 -11.9269,1.9893 -3.6157,1.1681 -7.4426,1.8967 -8.5043,1.619 -1.0618,-0.2776 -3.1196,-0.042 -4.5731,0.5239 -3.0117,1.1724 -3.4741,1.2533 -15.42062,2.6964 -4.8279,0.5832 -9.3279,1.4052 -10,1.8267 -0.6722,0.4215 -5.2721,0.8432 -10.2221,0.9371 -5.7387,0.1089 -10.507,0.7784 -13.1587,1.8474 -2.7828,1.122 -10.1058,2.0766 -22.1331,2.8852 -11.0189,0.7408 -18.5462,1.683 -19.4521,2.4348 -0.8127,0.6745 -4.8028,1.6632 -8.8669,2.1971 -4.064,0.5338 -10.0892,1.4281 -13.3892,1.9873 -3.3,0.5591 -7.8225,1.0192 -10.05,1.0224 -2.2275,0 -4.4775,0.4234 -5,0.9339 -0.5225,0.5104 -9.275,1.1705 -19.45,1.4668 -19.079,0.5556 -30.08373,1.173 -35.77124,2.0067 -1.79918,0.2638 -4.57816,0.024 -6.17551,-0.5329 -2.23432,-0.7789 -3.44222,-0.6599 -5.23626,0.5156 -1.2826,0.8403 -3.22862,1.5032 -4.32449,1.473 -1.09588,-0.03 -4.6925,0.2657 -7.9925,0.6576 -5.73705,0.6812 -15.008,0.6685 -22.5,-0.031 -17.28624,-1.6135 -17.73602,-1.6144 -18.34137,-0.037 -0.81435,2.1222 -3.39479,1.9595 -4.09872,-0.2584 z m -427.55991,-70.7958 c 0,-0.2161 -0.675,-0.393 -1.5,-0.393 -0.825,0 -1.5,0.4359 -1.5,0.9686 0,0.5328 0.675,0.7096 1.5,0.393 0.825,-0.3166 1.5,-0.7524 1.5,-0.9686 z m 841.45072,-68.643 c -0.2676,-0.6875 -1.4909,-1.7689 -2.7186,-2.4032 -12.1691,-6.2871 -19.377,-9.3877 -21.13,-9.0895 -1.4927,0.254 -0.7975,0.7334 2.3979,1.6537 2.475,0.7128 4.725,1.6063 5,1.9855 0.275,0.3792 3.0978,1.9864 6.2729,3.5716 3.175,1.5851 6.2676,3.4783 6.8724,4.207 1.3944,1.6801 3.9527,1.7381 3.3054,0.075 z M 751.16906,910.9232 c 2.33227,-1.0384 4.94295,-2.9601 5.80152,-4.2705 1.59234,-2.4302 3.40821,-15.8244 3.44023,-25.3759 0.0192,-5.7313 1.94779,-10.5757 4.61821,-11.6005 0.92092,-0.3534 7.80007,-1.0856 15.28698,-1.6271 19.31148,-1.3968 26.89668,-2.7056 34.61258,-5.9722 1.1,-0.4657 5.74283,-1.1194 10.3174,-1.4526 7.43751,-0.5418 18.1735,-3.1198 23.6834,-5.6869 2.0271,-0.9445 14.0872,-4.3543 20.4992,-5.7958 6.296,-1.4155 25.1803,-13.2667 28.0076,-17.5768 0.8449,-1.2879 2.699,-3.2564 4.1203,-4.3744 1.4213,-1.118 4.5426,-5.0885 6.9363,-8.8234 2.3936,-3.7348 5.4421,-8.1325 6.7745,-9.7726 2.3074,-2.8402 2.3988,-3.4834 1.9223,-13.5363 -0.4101,-8.6517 -0.9745,-11.5568 -3.1306,-16.1146 -1.4467,-3.058 -2.6304,-6.3154 -2.6304,-7.2386 0,-3.4355 -7.0538,-15.3111 -12.2746,-20.6651 -5.932,-6.0835 -13.44,-12.3042 -15.1539,-12.5558 -0.6027,-0.088 -2.6004,-1.5663 -4.4394,-3.2842 -1.839,-1.7179 -3.971,-3.1234 -4.7379,-3.1234 -0.7668,0 -1.6179,0 -1.8914,-0.01 -1.5821,-0.022 -9.4513,-3.6864 -12.0028,-5.589 -3.4912,-2.6033 -8.5969,-4.7032 -17,-6.9917 -6.1868,-1.685 -7.73661,-2.1303 -25.5,-7.3277 -5.775,-1.6897 -11.59305,-3.075 -12.929,-3.0784 -1.33595,0 -3.92345,-0.4562 -5.75,-1.0062 -1.82655,-0.55 -4.93769,-1.4942 -6.91363,-2.0982 -3.92632,-1.2003 -5.01746,-1.3847 -13.90737,-2.3504 -8.17733,-0.8884 -13.36344,-2.543 -13.96499,-4.4553 -0.27613,-0.8779 -0.56738,-6.7711 -0.64722,-13.0961 -0.0934,-7.3972 -0.68736,-13.028 -1.6649,-15.7829 -1.19246,-3.3606 -1.28795,-5.0834 -0.4434,-8 0.62422,-2.1557 0.89443,-8.6506 0.64326,-15.4619 -0.39628,-10.7468 -0.26268,-11.9153 1.57208,-13.75003 1.10284,-1.10284 3.2441,-2.00517 4.75835,-2.00517 4.87982,0 15.80972,3.6801 24.94883,8.4003 4.89828,2.5298 9.44416,4.5997 10.10197,4.5997 0.65781,0 1.19602,0.3595 1.19602,0.799 0,0.4394 1.84005,1.9019 4.08899,3.25 5.0591,3.0325 8.91391,10.2983 8.21504,15.4842 -0.59308,4.401 3.78438,13.6542 7.92512,16.7523 1.62783,1.218 4.31629,3.4665 5.97435,4.9967 4.21567,3.8905 8.2164,5.275 16.1448,5.5869 8.9839,0.3534 16.451,-3.0218 20.3903,-9.2166 2.4015,-3.7767 2.6204,-4.9504 2.4182,-12.9685 -0.1222,-4.8488 -0.77,-9.7269 -1.4395,-10.8403 -0.6695,-1.1134 -6.3923,-5.4965 -12.7173,-9.7401 -6.325,-4.2437 -16.5683,-11.1709 -22.76298,-15.39387 -6.19463,-4.22298 -12.49463,-7.97069 -14,-8.32824 -1.50536,-0.35756 -3.41202,-1.2325 -4.23702,-1.94432 -2.93197,-2.52972 -14.55955,-6.92743 -34.21483,-12.94051 -3.14316,-0.96157 -6.65887,-1.50144 -7.8127,-1.19971 -3.31108,0.86587 -8.94374,-1.94402 -9.14165,-4.56037 -0.0931,-1.23012 -0.23269,-11.23658 -0.31031,-22.23658 -0.19889,-28.184 -1.49958,-30.93984 -14.24022,-30.17147 -9.5906,0.57839 -11.54945,4.16648 -11.28526,20.67147 0.24114,15.06421 -0.65299,26.08653 -2.2453,27.67884 -1.28123,1.28123 -3.1532,1.38691 -11.88524,0.67096 -5.70047,-0.46739 -15.68693,-0.6248 -22.19213,-0.3498 -12.45776,0.52664 -15.01931,0.14421 -15.99075,-2.38732 -0.32812,-0.85508 -0.90764,-6.75754 -1.28782,-13.11658 -0.38018,-6.35905 -0.99207,-11.74782 -1.35976,-11.97507 -0.36769,-0.22724 -0.50093,-4.24055 -0.29609,-8.91845 0.35891,-8.19617 0.27049,-8.61026 -2.43275,-11.39395 -4.80058,-4.94344 -12.30258,-6.49004 -18.63889,-3.84256 -4.90087,2.04771 -5.53144,5.70281 -5.0794,29.44258 0.38402,20.16737 0.37052,20.32484 -1.93963,22.63499 -1.32917,1.32917 -4.21687,2.63843 -6.73681,3.05442 -2.42575,0.40044 -4.86046,1.05736 -5.41046,1.45983 -1.21813,0.89139 -7.61556,2.53817 -17.07491,4.39532 -3.8912,0.76395 -7.9412,1.83363 -9,2.37705 -1.0588,0.54342 -3.32398,1.25245 -5.03374,1.57562 -3.24113,0.61262 -16.52082,6.39511 -17.39135,7.57286 -0.275,0.37206 -2.41509,1.52105 -4.75575,2.55333 -2.34067,1.03228 -4.75827,2.48236 -5.37245,3.2224 -0.61418,0.74004 -1.92409,1.34553 -2.91091,1.34553 -0.98682,0 -1.94422,0.44122 -2.12756,0.98049 -0.18333,0.53928 -2.58333,1.40688 -5.33333,1.92801 -7.87514,1.49236 -12.24445,4.2203 -16.96428,10.5915 -1.62977,2.2 -3.62366,4.675 -4.43086,5.5 -2.39088,2.4436 -8.53403,12.3167 -11.91102,19.1431 -2.61064,5.2773 -3.25896,8.0141 -3.81741,16.1145 -0.57561,8.3493 -0.43072,10.0249 1.00386,11.6101 1.34676,1.4882 1.46924,2.3979 0.62266,4.6245 -1.87033,4.9194 1.37593,12.0654 10.45183,23.0078 6.48339,7.8167 12.79873,13.377 15.28675,13.459 0.68284,0.023 1.80358,0.941 2.49054,2.041 0.68696,1.1 1.61716,2 2.06712,2 0.44995,0 2.4792,1.2842 4.50945,2.8537 3.92087,3.0312 15.19136,9.4828 15.19136,8.6961 0,-0.257 2.20285,0.6392 4.89523,1.9915 2.69237,1.3523 5.52047,2.4587 6.28466,2.4587 0.76418,0 3.95009,0.9 7.07979,2 3.12969,1.1 8.19243,2 11.25052,2 3.56603,0 6.49802,0.6145 8.17515,1.7134 3.35447,2.1979 5.15088,2.4663 8.63944,1.2905 2.13381,-0.7191 3.41613,-0.5645 5.24228,0.632 1.32962,0.8712 3.12447,1.3127 3.98855,0.9811 1.74666,-0.6702 6.40938,1.431 8.34149,3.759 1.6049,1.9338 1.76369,29.4562 0.20339,35.2508 -0.60142,2.2335 -1.04921,6.9437 -0.99507,10.4671 0.29662,19.3069 -0.0973,20.6992 -5.47393,19.3497 -1.21526,-0.305 -3.4265,-0.092 -4.91386,0.4737 -2.1856,0.8309 -4.47977,0.445 -11.96097,-2.0119 -11.75473,-3.8605 -31.16612,-8.9054 -34.26523,-8.9054 -1.30537,0 -2.63123,-0.4172 -2.94635,-0.927 -0.31512,-0.5099 -2.25418,-1.458 -4.30902,-2.1069 -2.05484,-0.6489 -6.39545,-2.4817 -9.64579,-4.0729 -3.25035,-1.5913 -6.7475,-2.8932 -7.77144,-2.8932 -1.02395,0 -2.35617,-1.0852 -2.9605,-2.4116 -0.75327,-1.6532 -2.44064,-2.7494 -5.36624,-3.4861 -2.34711,-0.591 -4.52889,-1.7558 -4.8484,-2.5884 -0.31951,-0.8327 -1.18586,-1.5139 -1.92522,-1.5139 -0.73937,0 -2.59761,-1.3082 -4.12944,-2.9071 -2.1493,-2.2433 -2.9482,-4.29 -3.4994,-8.9648 -0.97138,-8.2383 -6.74362,-15.7425 -17.23426,-22.4055 -7.02153,-4.4596 -8.01277,-4.798 -14.19669,-4.8454 -3.65645,-0.028 -6.87166,-0.4128 -7.14489,-0.8549 -0.78957,-1.2775 -10.56508,-0.2187 -13.05739,1.4143 -1.24509,0.8158 -3.71147,4.0136 -5.48083,7.1061 -2.82786,4.9426 -3.13503,6.1874 -2.53918,10.29 0.37282,2.567 0.76465,5.6108 0.87073,6.7641 0.10608,1.1532 0.7003,2.7282 1.32048,3.5 0.62019,0.7717 1.42559,2.3766 1.78978,3.5662 0.68836,2.2486 9.83083,11.1826 14.43754,14.1083 1.45479,0.9239 5.7789,4.2892 9.60913,7.4783 3.94854,3.2876 8.71166,6.2842 11,6.9202 2.21977,0.617 8.5217,3.3261 14.0043,6.0201 5.4826,2.694 11.5576,5.3028 13.5,5.7974 7.17135,1.8259 13.58803,4.361 15.59609,6.1616 1.13545,1.0181 2.8453,1.8511 3.79966,1.8511 0.95437,0 2.96591,0.6364 4.4701,1.4143 1.5042,0.7778 4.51935,1.7365 6.70035,2.1304 2.18099,0.3938 4.41544,1.0523 4.96544,1.4631 0.55,0.4109 4.15,1.5243 8,2.4742 3.85,0.9498 7.9,2.206 9,2.7915 3.17719,1.6911 19.54275,5.7217 23.4472,5.7748 5.29419,0.072 19.84886,3.3478 21.29357,4.7925 0.88548,0.8855 1.28401,5.4739 1.3427,15.4593 0.14535,24.7248 1.88619,30.6988 9.09848,31.2233 1.54993,0.1127 4.28912,0.6871 6.08709,1.2764 2.83585,0.9295 3.61025,0.778 5.84389,-1.1433 3.07854,-2.648 4.28224,-7.9341 4.34352,-19.0746 0.0544,-9.8901 1.78253,-20.1204 3.66235,-21.6805 1.01108,-0.8391 7.51896,-1.1524 22.26554,-1.0718 20.37341,0.1114 25.09093,0.7033 26.72911,3.354 0.44426,0.7188 0.87976,7.384 0.96779,14.8117 0.14305,12.0695 0.42299,14.0712 2.63409,18.8351 3.79518,8.1768 7.14374,9.1932 16.52515,5.0163 z m 13.77075,-73.8343 c -1.47105,-1.6255 -1.68885,-3.039 -1.19552,-7.7588 0.33176,-3.1742 -0.0398,-10.67 -0.8257,-16.6573 -0.7859,-5.9874 -1.16328,-11.3159 -0.83861,-11.8413 0.32466,-0.5253 0.64842,-5.8227 0.71945,-11.772 0.071,-5.9493 0.49652,-11.1841 0.94552,-11.633 2.35624,-2.3554 8.52177,-3.043 14.80605,-1.6512 11.30271,2.5032 14.32104,2.6767 15.78935,0.9075 1.58926,-1.9149 5.42052,-2.1028 7.2668,-0.3563 1.55559,1.4715 8.82143,2.0307 8.82143,0.6789 0,-2.0387 5.08963,-0.746 9.1734,2.33 2.37963,1.7924 5.55166,3.8021 7.04896,4.466 1.55986,0.6916 3.3529,2.7161 4.19897,4.7411 0.81214,1.9437 1.90072,3.534 2.41906,3.534 1.37376,0 4.47851,8.0525 4.29801,11.1471 -0.34276,5.8736 -3.96104,11.8224 -11.0598,18.1832 -1.33177,1.1933 -3.24427,2.9572 -4.25,3.9197 -1.00573,0.9625 -2.93243,1.75 -4.28155,1.75 -1.34912,0 -3.48662,0.4358 -4.75,0.9685 -11.64408,4.9093 -21.61003,8.0649 -26.95628,8.5353 -3.48742,0.3068 -8.78592,0.994 -11.77443,1.527 -7.26187,1.2953 -7.48255,1.2718 -9.55511,-1.0184 z m -65.93661,0.2289 c -0.2939,-0.2939 -4.18238,-0.8551 -8.64107,-1.2471 -6.92321,-0.6087 -8.49553,-1.1012 -10.77013,-3.3736 -2.51964,-2.5171 -2.68087,-3.267 -2.98664,-13.8907 -0.43005,-14.9414 1.31414,-45.6208 2.67076,-46.9774 0.92564,-0.9257 4.18446,-1.7483 7.65246,-1.9317 0.55,-0.029 7.525,0.2817 15.5,0.6905 7.975,0.4089 16.525,0.8433 19,0.9654 7.60351,0.375 7.938,0.4613 10.07487,2.5982 2.0373,2.0373 2.06305,2.612 1.42181,31.7417 -0.36459,16.5626 -1.07998,30.1813 -1.61958,30.8315 -0.97683,1.177 -31.16431,1.7314 -32.30248,0.5932 z M 713.92858,695.935 c -3.3,-0.3528 -10.05,-0.6969 -15,-0.7647 -11.18415,-0.1532 -13.73275,-1.3012 -14.68899,-6.6167 -1.20347,-6.6898 -1.95839,-27.4771 -0.99787,-27.4771 0.49204,0 0.90686,-3.0375 0.92183,-6.75 0.015,-3.7125 0.31185,-11.025 0.65973,-16.25 0.88235,-13.25259 0.86968,-13.24403 18.49578,-12.49332 15.73074,0.67 24.10952,-0.0674 24.10952,-2.1219 0,-1.89533 0.26462,-1.81341 5.45267,1.68796 l 4.55294,3.07274 -0.4454,9.17722 c -0.24497,5.0475 -0.73829,19.9773 -1.09626,33.1773 -0.35797,13.2 -1.08138,24.45 -1.60756,25 -1.08464,1.1337 -11.4054,1.3155 -20.35639,0.3585 z m -71,-7.5341 c -5.73075,-0.7182 -23.03953,-4.4692 -29.91985,-6.4839 -4.44927,-1.3029 -7.96112,-3.0676 -9.83631,-4.9428 -2.62474,-2.6248 -2.8462,-3.3406 -2.21402,-7.1571 0.95856,-5.7868 1.73569,-7.0164 7.21903,-11.4227 2.61313,-2.0998 5.33917,-4.6054 6.05785,-5.5679 0.71869,-0.9625 1.80826,-1.75 2.42126,-1.75 0.61301,0 1.82499,-0.617 2.6933,-1.3711 0.86831,-0.7542 4.27874,-2.3009 7.57874,-3.4372 3.3,-1.1364 9.14805,-3.2194 12.99567,-4.6289 8.7221,-3.1953 14.98544,-3.4009 16.51539,-0.5421 0.59479,1.1113 0.88533,2.3488 0.64565,2.75 -0.23968,0.4011 -0.73272,8.8874 -1.09565,18.8585 -0.56903,15.6331 -0.44656,18.3424 0.88953,19.6785 1.92573,1.9258 2.00056,3.6923 0.1564,3.6923 -0.76616,0 -1.65203,0.675 -1.96862,1.5 -0.56867,1.4819 -4.6693,1.7604 -12.13837,0.8244 z M 18.125786,770.2848 c 0.74136,-0.4713 0.86905,-1.2921 0.33535,-2.1556 -0.72417,-1.1717 -1.27495,-1.1239 -3.44722,0.2994 -1.42194,0.9317 -2.58534,1.9086 -2.58534,2.171 0,0.7626 4.38331,0.5205 5.69721,-0.3148 z m 229.090554,-90.345 c -0.24965,-0.749 -0.70294,-0.2957 -1.05655,1.0565 -0.43497,1.6634 -0.30483,2.0538 0.43724,1.3118 0.5811,-0.5812 0.85979,-1.6469 0.61931,-2.3683 z M 405.9607,326.62753 c 1.90733,-0.79694 3.46788,-1.89161 3.46788,-2.43262 0,-0.541 0.87573,-1.26158 1.94608,-1.6013 1.07034,-0.33971 3.65784,-2.15959 5.75,-4.04418 2.09215,-1.88459 4.36261,-3.43697 5.04545,-3.44973 0.68284,-0.0128 1.80358,-0.9232 2.49054,-2.0232 0.68696,-1.1 2.15328,-2.00428 3.25848,-2.0095 1.1052,-0.005 4.70945,-1.70782 8.00945,-3.78355 3.3,-2.07573 7.9125,-4.39348 10.25,-5.15056 3.39696,-1.10022 4.25,-1.84617 4.25,-3.71645 0,-1.79744 -0.55148,-2.33994 -2.37868,-2.33994 -1.75114,0 -2.72056,-0.85741 -3.6746,-3.25 -0.71275,-1.7875 -2.03452,-4.375 -2.93727,-5.75 -4.54332,-6.92003 -12.37808,-29.86505 -16.56072,-48.5 -2.59776,-11.5738 -3.27694,-15.06226 -4.38061,-22.5 -0.6121,-4.125 -1.72568,-11.325 -2.47461,-16 -1.65525,-10.33238 -1.37976,-34.68762 0.44212,-39.08601 1.06655,-2.5749 1.02212,-3.28481 -0.28755,-4.59448 -1.39869,-1.3987 -2.16522,-1.23882 -7.89855,1.64742 -3.49224,1.75804 -7.30995,4.20887 -8.48379,5.44628 -1.49204,1.57286 -3.42547,2.30045 -6.42536,2.41799 -2.88417,0.11302 -4.91912,0.84224 -6.20651,2.22408 -2.18518,2.34552 -8.40454,15.37104 -9.08022,19.01716 -0.24742,1.33516 -0.77982,4.22756 -1.18309,6.42756 -0.40328,2.2 -0.90595,4.30556 -1.11705,4.67902 -0.2111,0.37346 -0.59819,5.77346 -0.8602,12 -0.26202,6.22654 -0.78969,13.12098 -1.17261,15.32098 -0.38291,2.2 -0.59006,4.40247 -0.46033,4.89438 0.12973,0.4919 0.24563,3.97938 0.25755,7.74995 0.0119,3.77057 0.47398,8.3181 1.02681,10.10562 0.55283,1.78753 1.39086,6.17505 1.86229,9.75005 0.47143,3.575 1.15023,7.625 1.50843,9 0.35821,1.375 1.06396,4.525 1.56835,7 0.50438,2.475 1.36434,5.625 1.91102,7 0.54669,1.375 1.18659,4.075 1.42201,6 0.69136,5.65308 2.75311,13 3.64817,13 0.45516,0 1.82369,2.73198 3.04119,6.07107 1.52273,4.17626 3.25609,6.86621 5.55372,8.61869 2.04716,1.56145 3.34009,3.42102 3.34009,4.80393 0,2.81101 1.1095,8.50631 1.65712,8.50631 0.22391,0 1.96766,-0.65204 3.875,-1.44897 z m 57.82951,-38.05103 c 0.33762,-0.87984 1.83712,-1.5 3.62686,-1.5 3.15989,0 8.08169,-2.71456 16.14485,-8.90451 2.57596,-1.97752 7.30347,-5.17049 10.50558,-7.09549 3.20211,-1.925 6.52066,-4.175 7.37454,-5 0.85389,-0.825 3.33768,-2.81476 5.51953,-4.42169 2.18186,-1.60693 5.09201,-3.95506 6.46701,-5.21806 5.53895,-5.08777 11.26423,-9.36025 12.54306,-9.36025 1.25756,0 5.52788,-3.83425 23.66676,-21.25 3.86665,-3.7125 7.44515,-6.75 7.95223,-6.75 0.50707,0 3.94055,-2.88044 7.62995,-6.40098 3.6894,-3.52054 8.61245,-7.90804 10.94011,-9.75 9.26005,-7.32781 18.11066,-15.46601 19.13962,-17.59902 0.59697,-1.2375 1.56468,-2.25 2.15048,-2.25 1.77805,0 6.45663,-4.88288 6.46755,-6.74998 0.007,-1.19043 0.6983,-1.67941 2.16202,-1.52921 1.18348,0.12144 2.70108,-0.44106 3.37245,-1.25 0.67136,-0.80895 2.29056,-1.47081 3.59821,-1.47081 2.56778,0 3.18501,-2.08499 1.12367,-3.79575 -0.90575,-0.7517 -3.47404,0.045 -9.25,2.86955 -4.39786,2.1506 -8.61071,3.91379 -9.3619,3.91819 -0.75118,0.004 -3.67618,0.72843 -6.5,1.60894 -2.82381,0.88052 -6.35794,1.96123 -7.85362,2.40159 -1.49567,0.44036 -4.42067,0.40568 -6.5,-0.0771 -2.07932,-0.48276 -5.35559,-0.90278 -7.28059,-0.9334 -4.42965,-0.0704 -6.77788,-1.84314 -7.1825,-5.42214 -0.28497,-2.52059 0.10934,-2.93644 3.84851,-4.05882 3.43194,-1.03015 4.40609,-1.01042 5.52848,0.11197 1.14996,1.14996 2.37187,1.06398 7.83399,-0.55127 9.09996,-2.69101 16.56113,-5.48631 18.13874,-6.79561 0.73918,-0.61346 2.57895,-1.42535 4.08837,-1.80419 1.50943,-0.37885 2.74441,-1.04988 2.74441,-1.49119 0,-0.44131 1.96553,-1.75388 4.36785,-2.91683 2.40231,-1.16294 5.15738,-2.98686 6.12237,-4.05316 2.27421,-2.51297 3.88901,-10.84894 2.43985,-12.59507 -1.25329,-1.51013 1.891,-7.80189 6.39132,-12.7891 1.55177,-1.71965 3.46329,-4.3399 4.24783,-5.82277 2.39728,-4.53117 6.16158,-7.95407 11.43358,-10.39662 5.75505,-2.66636 6.83802,-4.46897 4.88008,-8.1229 -1.86086,-3.472734 -1.86323,-34.818854 -0.003,-41.284354 0.71205,-2.475 1.5929,-6.95656 1.95745,-9.95903 0.53392,-4.39758 1.06943,-5.56422 2.7541,-6 1.15022,-0.29753 4.4919,-2.61966 7.42596,-5.16029 l 5.33465,-4.61931 -1.55614,-3.38069 c -1.80796,-3.92775 -4.37156,-11.96295 -5.3023,-16.61921 -0.35604,-1.7812 -0.99821,-3.45538 -1.42704,-3.72042 -0.42884,-0.26503 -3.88172,0.4076 -7.67307,1.49475 -8.27804,2.37368 -26.71616,2.56292 -32.06248,0.32909 -5.87538,-2.4548003 -8.00865,-10.3648603 -2.79545,-10.3648603 1.27687,0 3.01265,-0.69107 3.8573,-1.53570999 1.38095,-1.38096 1.7418,-1.32963 3.58079,0.50935999 1.71271,1.71271 2.81552,1.94065 6.78571,1.40254 2.60735,-0.3534 6.79931,-0.73234 9.31547,-0.84209 5.13638,-0.22404 6.92517,-1.00775999 6.92517,-3.0341 0,-2.02674 1.87869,-2.84557 3.47988,-1.5167 1.02652,0.85194 1.93447,0.86531 3.4562,0.0509 1.13515,-0.60752 2.06392,-0.7853 2.06392,-0.39508 0,0.39022 1.11872,-0.34148 2.48604,-1.62602 2.08772,-1.9613 2.3893,-2.94051 1.88224,-6.1114897 -0.54077,-3.38175 -0.40151,-3.72307 1.33381,-3.26927 2.26827,0.59316 3.32015,-0.52484 7.243,-7.69832 1.59822,-2.92259 6.78259,-9.20255 11.52082,-13.95548 l 8.61497,-8.64169 -5.45735,-3.62347 c -3.00154,-1.99292 -6.26676,-4.99371 -7.25605,-6.66843 -0.98928,-1.67472 -2.21871,-3.04495 -2.73207,-3.04495 -1.82497,0 -7.62019,-6.87609 -7.04923,-8.36399 1.08128,-2.81777 3.71457,-2.75857 7.84615,0.17641 4.64499,3.2997 9.1346,4.69731 10.09541,3.14269 0.87765,-1.42006 3.46845,0.74951 3.48373,2.91733 0.0236,3.34907 6.70893,5.22861 17.48853,4.91681 9.36844,-0.27098 9.97874,-0.41556 9.66335,-2.28925 -0.40762,-2.42159 -4.02816,-6.5 -5.77028,-6.5 -1.96378,0 -2.80621,-4.01543 -1.18297,-5.63867 1.22087,-1.22087 1.95736,-1.19293 5.35277,0.20302 2.16542,0.89027 4.98225,2.9275 6.25961,4.52716 1.27736,1.59967 2.80988,2.90849 3.40561,2.90849 0.59572,0 2.68936,1.22513 4.65253,2.72252 6.00739,4.58206 16.72251,9.17694 23.01588,9.86972 1.31808,0.1451 2.71289,0.77574 3.09959,1.40143 0.89619,1.45007 5.78873,4.00633 7.66788,4.00633 0.78944,0 2.76822,0.68926 4.39729,1.53168 1.79886,0.93022 6.9823,1.74967 13.20034,2.08682 5.63112,0.30533 11.94847,0.9895 14.03857,1.52037 4.45588,1.13179 17.85589,0.28225 25.70065,-1.62937 11.89535,-2.89867 27.91828,-12.68601 27.98318,-17.09311 0.01,-0.59599 1.7907,-3.00592 3.9597,-5.3554 4.5346,-4.91187 5.508,-8.14152 4.5509,-15.10014 -0.6386,-4.64348 -2.4463,-7.60586 -3.2216,-5.27971 -0.7457,2.23703 -2.8684,4.29837 -4.773,4.63508 -2.2056,0.38992 -7.71274,2.8062 -8.5,3.72942 -0.275,0.3225 -2.75,2.11327 -5.5,3.9795 -9.23121,6.26457 -13.98975,10.07203 -15.51577,12.41467 -2.05614,3.15643 -9.83358,9.56019 -11.61096,9.56019 -4.07844,0 -11.55702,-4.84524 -21.22298,-13.75 -1.34328,-1.2375 -2.80766,-2.25 -3.25416,-2.25 -0.4465,0 -2.00277,-2.0322 -3.45837,-4.51599 -1.83322,-3.12815 -2.45495,-5.27937 -2.0231,-7 0.80228,-3.19653 1.97445,-3.12897 6.44144,0.3713 2.00414,1.57041 4.62114,3.36737 5.81553,3.99324 1.1944,0.62586 3.84485,2.71598 5.88988,4.64469 2.04504,1.92872 4.31993,3.50676 5.05532,3.50676 0.73538,0 2.07419,1.125 2.97513,2.5 0.90093,1.375 2.07783,2.5 2.61532,2.5 1.26785,0 5.06449,-2.99554 11.29272,-8.90994 6.36081,-6.0403 21.24954,-17.09006 23.02758,-17.09006 5.05479,0 -0.15108,-5.86292 -7.52758,-8.47765 -2.475,-0.87731 -6.13793,-2.46365 -8.13985,-3.52519 -2.17935,-1.15564 -5.10893,-1.8144 -7.30107,-1.64176 -2.01368,0.15859 -3.91177,-0.11705 -4.218,-0.61254 -0.30622,-0.49548 -2.87074,-0.604 -5.69893,-0.24116 -5.8031,0.7445 -11.35645,4.11459 -19.14215,11.61652 -2.75,2.64977 -6.125,4.94467 -7.5,5.09977 -2.33233,0.2631 -2.49408,-0.005 -2.41174,-3.99446 0.0659,-3.19216 0.76315,-4.98089 2.75,-7.05471 1.46396,-1.52804 2.66296,-3.20363 2.66444,-3.72354 0.003,-1.13721 5.11064,-4.248296 14.24206,-8.675326 4.5027,-2.18297 6.7465,-3.85168 6.75,-5.01995 0.007,-2.21224 1.61679,-2.26655 2.83176,-0.0955 0.62622,1.119 1.53237,1.41773 2.79969,0.92299 1.7041,-0.66527 1.60212,-0.95024 -1.12621,-3.14687 -1.65,-1.32844 -5.475,-3.67135 -8.5,-5.20646 -10.34019,-5.2474 -16.49965,-8.44617 -18,-9.34787 -0.825,-0.49583 -3.45385,-1.79756 -5.84188,-2.89274 -2.38803,-1.09518 -6.21303,-3.30509 -8.5,-4.91091 -3.84448,-2.69945 -5.04829,-2.96743 -15.95977,-3.55287 -11.89853,-0.6384 -24.20141,0.9192 -29.19677,3.69643 -2.64718,1.47172 -15.33836,4.744 -18.50158,4.77041 -1.375,0.0115 -3.86691,0.85445 -5.53758,1.87326 -2.1328,1.30063 -6.07817,2.06795 -13.2457,2.5761 -15.07746,1.06894 -24.38237,2.84894 -42.56885,8.1433 -2.66867,0.7769 -5.1781,1.21108 -5.5765,0.96485 -1.16949,-0.72278 -12.20967,2.17619 -16.77306,4.40435 -2.31094,1.12835 -4.7058,2.05154 -5.32193,2.05154 -2.40824,0 -19.55341,11.547286 -24.79781,16.701336 -0.72678,0.71426 -1.78803,1.29866 -2.35832,1.29866 -0.57028,0 -3.89585,2.87307 -7.39014,6.38459 -6.20578,6.23638 -11.43011,15.30256 -11.43011,19.83554 0,1.0842 -0.62018,3.16571 -1.37818,4.62557 -2.21921,4.27407 -3.43432,7.30381 -5.27567,13.15429 -0.95608,3.03773 -3.19735,7.0669 -5.00636,9 -9.06198,9.68361 -12.47374,13.87435 -14.49699,17.80698 -1.21871,2.36883 -5.0252,7.49938 -8.45886,11.40121 -3.43367,3.9018297 -6.49512,8.0986697 -6.80324,9.3262997 -0.30812,1.22764001 -1.91482,3.68218 -3.57046,5.45454 -1.65563,1.77237 -3.01024,3.91736 -3.01024,4.76666 0,0.8493 -1.8,4.6662403 -4,8.4820903 -2.2,3.81585 -4,7.15777 -4,7.42648 0,0.26872 -2.1375,3.73553 -4.75,7.70402 -5.1652,7.84616 -8.07505,13.517 -10.70962,20.87138 -0.93384,2.60681 -2.11364,4.9966 -2.62177,5.31064 -1.00232,0.61947 -4.91861,8.77263 -4.91861,10.23985 0,0.49493 -0.84321,1.66297 -1.8738,2.59564 -1.03059,0.93267 -2.11135,3.46681 -2.40168,5.63141 -0.29034,2.16461 -2.13423,7.20876 -4.09754,11.20922 -3.92093,7.98936 -7.82203,19.648974 -7.01246,20.958884 0.84968,1.37481 -0.64999,4.8147 -2.09904,4.8147 -1.43575,0 -3.96597,9.46207 -2.96383,11.08357 0.31151,0.50404 -0.13517,0.91643 -0.99263,0.91643 -1.042,0 -1.55902,0.93151 -1.55902,2.80887 0,1.54488 -0.66069,3.68238 -1.4682,4.75 -0.8075,1.06762 -1.4825,3.08863 -1.5,4.49113 -0.0175,1.4025 -0.5498,3.068 -1.18292,3.70112 -0.63311,0.63311 -1.50274,3.08561 -1.93251,5.45 -1.37958,7.58972 -3.28108,11.84753 -5.54599,12.41845 -1.1713,0.29525 -3.62207,2.07663 -5.44617,3.95863 -1.8241,1.88199 -4.07317,3.4218 -4.99793,3.4218 -0.92477,0 -2.13421,0.5625 -2.68766,1.25 -1.40444,1.74462 -0.88937,34.45871 0.59933,38.0651 0.63913,1.5483 1.16205,4.79554 1.16205,7.21607 0,3.93302 0.77956,6.5084 4.29935,14.20343 0.56217,1.22904 1.15402,3.47904 1.31521,5 1.33274,12.57545 4.87171,22.65018 8.34342,23.75206 1.05515,0.33489 2.46277,2.25818 3.12804,4.27397 0.66527,2.0158 3.16807,7.50283 5.56178,12.19341 2.39371,4.69058 4.3522,9.51824 4.3522,10.72813 0,3.31613 -2.03589,3.91476 -4.12067,1.21165 l -1.84623,-2.39382 0.16185,3 c 0.089,1.65 0.33312,3.3375 0.54246,3.75 0.6902,1.36002 5.03696,0.78037 5.62422,-0.75 z m 21.12382,-75.09192 c -1.56967,-0.81436 -3.43115,-1.25916 -4.13662,-0.98844 -1.98058,0.76001 -11.23302,-2.30383 -13.34984,-4.42065 -1.40762,-1.40762 -2.76654,-1.74869 -5.31777,-1.33469 -4.02012,0.65238 -5.07273,-0.50435 -3.71312,-4.08038 1.12136,-2.94942 3.73231,-3.37589 5.53923,-0.90479 0.90376,1.23597 2.64125,1.65324 6.58325,1.58099 2.94548,-0.054 5.51758,-0.58459 5.71576,-1.17914 0.62234,-1.86701 3.19366,-1.1746 3.19366,0.86 0,2.38484 0.83867,2.92738 6.79982,4.39883 3.62215,0.89409 4.77144,1.66073 5.01086,3.34253 0.45833,3.2194 -2.72749,4.59226 -6.32523,2.72574 z m -13.23545,-16.76799 c -3.44213,-1.70476 -2.73942,-3.29563 1.25,-2.82988 3.29949,0.38519 4.95866,2.07347 2.25,2.28947 -0.6875,0.0548 -0.125,0.45997 1.25,0.90032 l 2.5,0.80064 -2.5,-0.0231 c -1.375,-0.0127 -3.5125,-0.52456 -4.75,-1.13745 z m -9.58357,-9.06698 c -0.85,-2.21505 1.79421,-3.92793 3.28698,-2.12925 0.67032,0.80769 0.92847,1.93824 0.57366,2.51234 -0.93254,1.50889 -3.22179,1.28173 -3.86064,-0.38309 z m 52.89739,-14.70157 c -3.13204,-2.46367 -3.28552,-4.44955 -0.40215,-5.20357 3.05933,-0.80003 5.83833,0.98981 5.83833,3.76022 0,3.23546 -2.36096,3.86232 -5.43618,1.44335 z m -11.15846,-7.62154 c -5.76396,-3.29268 -6.16346,-3.7569 -7.11221,-8.26442 -1.17725,-5.59312 -0.75164,-6.98558 2.1352,-6.98558 2.62014,0 4.97379,2.29731 6.51987,6.3638 0.84237,2.2156 1.55645,2.73749 3.1687,2.31588 2.62745,-0.6871 9.88308,3.01574 9.88308,5.04373 0,1.1677 -0.3155,1.25964 -1.35684,0.3954 -1.76131,-1.46175 -7.64316,-0.30265 -7.64316,1.50619 0,1.85772 -1.91033,1.72968 -5.59464,-0.375 z M 609.11608,-14.569334 c -1.3041,-1.3041 -0.68149,-2.35417 1.39583,-2.35417 1.16375,0 1.90861,0.52417 1.6875,1.1875 -0.48711,1.46134 -2.15686,2.09314 -3.08333,1.16667 z m -8.6875,-34.64656 c 0,-2.3143 3.25774,-6.70761 4.97386,-6.70761 0.49277,0 2.16274,-0.53793 3.71104,-1.19539 2.85669,-1.21305 3.82391,-1.48244 6.0651,-1.68926 0.6875,-0.0634 1.25,-1.28913 1.25,-2.72376 0,-2.23904 -0.33299,-2.52483 -2.35154,-2.01821 -3.70836,0.93074 -3.91173,-0.46582 -0.44075,-3.02662 3.17022,-2.33892 5.69204,-3.02097 5.90381,-1.59676 0.0613,0.4125 0.27341,4.43468 0.47126,8.93818 l 0.35973,8.18819 -7.72125,1.61763 c -4.24669,0.88969 -8.73376,1.82608 -9.97126,2.08087 -1.82221,0.37516 -2.25,0.0201 -2.25,-1.86726 z m 251.3913,331.869714 c -0.5881,-1.53256 -3.3595,-2.9425 -4.1769,-2.12502 -0.7736,0.7736 1.8667,3.5477 3.3767,3.5477 0.7532,0 1.1057,-0.62663 0.8002,-1.42268 z m -6.0476,-4.37099 c -0.3173,-1.21348 -1.3522,-2.20633 -2.2998,-2.20633 -0.9476,0 -2.2355,-1.125 -2.8619,-2.5 -1.2337,-2.70767 -2.6362,-3.19207 -3.79828,-1.31186 -0.41924,0.67835 0.012,1.64374 1.00498,2.25 0.9567,0.58402 3.1384,2.29651 4.8483,3.80552 3.5103,3.09782 3.9253,3.09283 3.1067,-0.0373 z m -8.2379,-20.74939 c 6.9332,-1.31824 13.6832,-2.80593 15,-3.30597 1.3168,-0.50005 7.7942,-1.19671 14.3942,-1.54814 16.6341,-0.88572 23.4088,-1.6463 24.0608,-2.70123 0.3065,-0.49588 1.7718,-0.9016 3.2562,-0.9016 3.1082,0 11.3793,-4.15988 15.1255,-7.60721 1.4066,-1.29442 3.8,-3.37484 5.3187,-4.62314 2.9622,-2.43495 6.6779,-11.52667 7.4667,-18.26965 0.2573,-2.2 0.8738,-4.4275 1.37,-4.95 0.4961,-0.5225 0.9128,-2.5475 0.926,-4.5 0.013,-1.9525 0.4268,-5.28663 0.9193,-7.40917 1.1568,-4.98576 -0.6471,-11.11527 -5.3606,-18.21429 l -3.5407,-5.33263 -4.5645,2.01913 c -10.6755,4.72225 -28.6898,7.49016 -55.4774,8.52411 -9.075,0.35028 -17.2019,0.99523 -18.0598,1.43323 -0.8578,0.438 -8.50783,0.89076 -16.99996,1.00613 -8.49213,0.11537 -16.32489,0.66317 -17.40612,1.21734 -1.08123,0.55417 -4.81028,1.10631 -8.28677,1.22698 -3.4765,0.12066 -6.5931,0.49159 -6.92579,0.82427 -0.33269,0.33269 0.39753,1.41659 1.62269,2.40868 1.92538,1.55907 2.10424,2.2747 1.31841,5.275 -0.86552,3.30454 -1.09773,3.45511 -4.83592,3.13566 -6.08162,-0.5197 -26.66802,-0.2565 -27.27321,0.3487 -0.29707,0.29707 -0.73318,4.57814 -0.96915,9.51349 l -0.42902,8.97337 2.73733,0 c 2.7062,0 2.71827,0.0291 1.06203,2.55684 -2.05283,3.133 -3.25773,11.44316 -1.65916,11.44316 0.60744,0 1.10444,1.6063 1.10444,3.56955 0,3.12995 0.27709,3.53012 2.25,3.24939 1.86451,-0.26531 2.20732,-0.87093 2.0009,-3.53485 -0.17267,-2.22838 0.28755,-3.49071 1.5,-4.11432 1.74678,-0.89844 9.5532,-1.85857 22.72653,-2.7952 3.83759,-0.27286 7.07874,-0.5974 7.20255,-0.72122 1.0189,-1.0189 1.91908,-12.5777 1.13927,-14.62876 -0.52356,-1.37708 -0.69012,-3.89935 -0.37013,-5.60506 0.33935,-1.80889 -0.0497,-4.61275 -0.93366,-6.72828 -1.87549,-4.48869 -1.93855,-8.09522 -0.16725,-9.56527 2.69785,-2.23902 7.04681,5.35662 8.58302,14.99057 0.68779,4.31326 1.67476,6.92189 3.04333,8.04374 2.61184,2.14098 2.62542,6.44807 0.0254,8.07178 -1.34544,0.84024 -2,2.33203 -2,4.55814 0,5.34655 -4.13673,11.63459 -10.31497,15.6793 -1.30717,0.85576 -8.86999,2.13636 -18.82422,3.18747 -12.90496,1.36269 -16.52495,2.05469 -16.13017,3.08345 0.32484,0.84654 1.91174,1.24368 4.38611,1.09768 2.8038,-0.16543 4.25192,0.28381 5.23101,1.62281 2.96712,4.05777 45.4088,4.05524 66.75804,-0.004 z m 4.4994,-16.34069 c -1.61,-1.77907 -1.5845,-2.23756 0.4588,-8.25 1.9256,-5.66589 2.1089,-7.85141 1.6658,-19.86625 -0.2738,-7.425 -0.6625,-14.175 -0.8638,-15 -0.2516,-1.03093 0.4158,-1.5 2.134,-1.5 1.9167,0 2.9667,0.93333 4.5,4 1.68,3.36 2,6 2,16.5 0,13.68484 -2.1,23.18039 -5.5329,25.01759 -2.4007,1.28486 -2.3794,1.28926 -4.3619,-0.90134 z m -87.08086,6.63375 c -0.17031,-1.7875 -1.09658,-5.95 -2.0584,-9.25 -2.12709,-7.29809 -3.45904,-24.16 -2.3576,-29.84632 1.19358,-6.16209 1.05759,-8.65368 -0.47234,-8.65368 -2.00722,0 -6.7646,7.36659 -7.22763,11.19167 -0.56771,4.6899 -0.59064,5.0238 -0.53609,7.80833 0.0269,1.375 -0.0925,4.263 -0.2653,6.41779 -0.31588,3.93783 1.69407,10.78966 3.98428,13.58221 0.67659,0.825 1.4598,2.98606 1.74047,4.80237 0.61209,3.96105 2.32563,6.26634 4.14023,5.57002 0.72916,-0.27981 1.62281,-0.0281 1.98591,0.55944 1.10814,1.79301 1.39019,1.21597 1.06647,-2.18183 z M 634.6814,228.94752 c 8.39566,-4.28315 25.74718,-20.10577 25.74718,-23.47852 0,-1.59835 -1.64231,-2.09861 -5.18336,-1.5789 -2.60663,0.38258 -2.81211,0.70121 -2.29148,3.55333 0.62706,3.4352 -0.45448,4.86882 -8.21222,10.88564 -2.30288,1.78608 -5.85726,4.59743 -7.89863,6.24743 -2.04136,1.65 -4.54469,3.323 -5.56294,3.71778 -1.01825,0.39477 -1.85137,1.18227 -1.85137,1.75 0,1.43213 0.50071,1.32759 5.25282,-1.09676 z m 96.01606,-11.18947 c 0.37261,-9.17304 0.23057,-10.60957 -0.93392,-9.44508 -1.29847,1.29847 -1.70002,7.76004 -1.11854,17.99924 0.4088,7.19851 1.61714,2.16242 2.05246,-8.55416 z m -44.24707,4.16341 c 4.76114,-7.3664 5.17645,-10.07125 0.85768,-5.58586 -4.42951,4.60041 -7.87949,9.2351 -7.87949,10.58529 0,3.00159 3.42798,0.56092 7.02181,-4.99943 z m 6.94301,-11.77922 c 1.4684,-2.74374 1.32911,-3.06574 -1.32615,-3.06574 -1.97952,0 -2.28405,0.40423 -1.88342,2.5 0.5721,2.99275 1.79528,3.20836 3.20957,0.56574 z m 89.28518,-14.77147 c -1.2375,-0.23836 -3.2625,-0.23836 -4.5,0 -1.2375,0.23835 -0.225,0.43337 2.25,0.43337 2.475,0 3.4875,-0.19502 2.25,-0.43337 z m -62.75,-4.31347 c 2.2,-0.5377 8.05,-1.15306 13,-1.36748 9.32505,-0.40393 12.20521,-0.72617 24,-2.68513 3.85,-0.63944 8.575,-1.33742 10.5,-1.55108 1.925,-0.21366 5.975,-0.66783 9,-1.00927 3.025,-0.34144 6.05666,-1.06414 6.73701,-1.60599 0.68036,-0.54185 2.25536,-0.73078 3.5,-0.41984 1.24465,0.31094 4.06299,0.11087 6.26299,-0.44459 6.90503,-1.7434 18.55771,-3.02983 31,-3.42231 43.467,-1.37115 74.1017,-4.67677 77.8223,-8.39737 0.5927,-0.59276 2.4108,-1.07774 4.0402,-1.07774 4.9196,0 12.1304,-5.4578 16.9718,-12.84586 5.3873,-8.22115 5.3499,-8.115 7.8179,-22.15414 2.6314,-14.96821 2.2516,-27.60999 -0.9599,-31.95377 -1.2058,-1.63089 -2.1923,-3.443254 -2.1923,-4.027484 0,-1.61501 -10.7504,-12.01875 -12.4192,-12.01875 -0.8045,0 -1.7409,0.45 -2.0808,1 -0.3399,0.55 -1.2823,1 -2.0942,1 -0.8119,0 -2.6666,0.78 -4.1216,1.73332 -1.4549,0.95333 -3.1266,1.7654 -3.7148,1.80461 -1.8583,0.12387 -6.3483,2.29526 -7.0313,3.40039 -0.3609,0.58392 -1.9796,1.06168 -3.5971,1.06168 -1.6176,0 -3.8231,0.88213 -4.9013,1.96029 -1.1846,1.18462 -4.0534,2.228264 -7.25,2.637524 -2.9093,0.37248 -6.9593,1.51535 -8.9999,2.53971 -2.0406,1.02437 -5.3801,1.86248 -7.4212,1.86248 -2.0411,0 -4.4216,0.59941 -5.2899,1.33202 -0.8683,0.7326 -4.4692,1.84481 -8.0021,2.47156 -3.5329,0.62674 -6.7592,1.68293 -7.1697,2.34707 -0.4704,0.76116 -5.2138,1.48669 -12.83183,1.96271 -6.64705,0.41535 -12.87068,0.99659 -13.8303,1.29164 -1.83833,0.56521 -18.83324,1.48556 -38.41043,2.08009 -6.41611,0.19485 -12.60361,0.85624 -13.75,1.46977 -1.14639,0.61353 -2.08434,0.86864 -2.08434,0.5669 0,-0.30173 -1.52772,0.0897 -3.39493,0.86989 -2.31326,0.96654 -3.72073,1.09269 -4.41751,0.39591 -0.94218,-0.94218 -7.59421,-0.76719 -18.68756,0.4916 -3.63764,0.41277 -8.01335,0.8003 -25.96472,2.29951 -3.2806,0.27398 -6.27458,0.99952 -6.65331,1.6123 -0.45648,0.73861 -2.73251,0.90052 -6.7524,0.48036 -8.98761,-0.93939 -9.46775,-0.5524 -7.03567,5.67068 2.875,7.35639 2.93188,7.76203 3.14232,22.40799 0.10471,7.2875 0.56023,13.25 1.01227,13.25 1.54844,0 -1.52839,4.50002 -6.25685,9.15098 l -4.72849,4.65098 -11.38157,0.29793 c -26.71579,0.69933 -28.5173,0.59223 -31.11611,-1.84989 -1.31691,-1.2375 -2.9193,-2.25 -3.56087,-2.25 -2.11805,0 -4.09942,-13.3061 -4.28107,-28.75 -0.0728,-6.1875 -0.27364,-11.25 -0.44637,-11.25 -0.17272,0 -1.25074,1.51562 -2.3956,3.36803 -1.79807,2.90934 -2.08156,4.96066 -2.08156,15.06211 0,14.93728 1.48045,19.75467 8.15452,26.53485 2.71851,2.76172 6.15836,5.26221 7.64411,5.55664 1.48575,0.29442 4.05137,1.0322 5.70137,1.6395 1.65,0.60729 6.6,1.4816 11,1.9429 4.4,0.46131 10.475,1.2555 13.5,1.76489 6.68521,1.12573 40.93683,0.47155 46.5,-0.88812 z m 34.67616,-16.7308 c -0.49182,-0.9625 -1.69523,-5.21782 -2.67426,-9.45627 -2.44012,-10.56394 -1.77174,-30.97103 1.10845,-33.84338 3.82667,-3.81626 4.54651,-1.40435 4.76748,15.97415 0.1275,10.02677 0.60769,16.46229 1.26011,16.88788 0.57976,0.37819 1.43615,2.03762 1.90309,3.68762 1.23928,4.37923 2.48902,-13.27844 1.80479,-25.5 -0.42585,-7.60653 -0.22584,-9.89863 1.00349,-11.5 1.53117,-1.99456 1.54123,-1.99419 3.69883,0.13359 1.63294,1.61038 2.29388,3.75811 2.69524,8.75826 0.4282,5.33445 0.78859,6.41155 1.85039,5.53033 1.56703,-1.30052 3.40623,-0.39976 3.40623,1.66822 0,2.04341 -3.00945,3.0049 -4.08561,1.30532 -0.55708,-0.87979 -0.88942,1.42289 -0.89908,6.22928 -0.008,4.19375 -0.29033,9.00008 -0.62646,10.68074 -0.79834,3.99173 -4.03221,7.44223 -6.30031,6.72236 -1.214,-0.38531 -2.10731,0.21768 -2.90004,1.95754 -1.33153,2.92238 -4.69138,3.34952 -6.01234,0.76436 z m 128.89014,-13.6701 c -1.6231,-1.95575 -1.5789,-3.92591 0.2799,-12.47805 1.2758,-5.86964 1.3809,-8.30016 0.5087,-11.76392 -0.6046,-2.40116 -0.8272,-5.72662 -0.4945,-7.3899 0.4166,-2.08325 0.1781,-3.18788 -0.7666,-3.55042 -1.0798,-0.41435 -1.1419,-1.13468 -0.2918,-3.38676 0.7822,-2.0722 0.7667,-3.8805 -0.056,-6.56194 -0.9236,-3.00951 -0.8659,-3.97162 0.3091,-5.14661 0.7949,-0.79484 1.4452,-1.78785 1.4452,-2.2067 0,-0.41885 2.3625,-0.72421 5.25,-0.67857 5.6818,0.0898 5.7984,0.26884 4.4489,6.82856 -0.329,1.59924 -0.038,3.27236 0.6968,4.00723 1.364,1.36404 1.669,20.30338 0.3601,22.36418 -1.2165,1.91529 -1.6601,13.79342 -0.5644,15.11357 0.5678,0.68418 0.7267,2.03719 0.3532,3.0067 -0.6445,1.67289 -0.7308,1.67061 -1.6938,-0.0449 -0.9463,-1.68585 -1.1743,-1.63534 -3.385,0.75 -2.6659,2.87659 -4.6618,3.23136 -6.3995,1.13752 z m -235.4163,8.4201 c -0.521,-2.60498 -0.30703,-3.00699 1.625,-3.0531 7.47476,-0.17837 14.46028,-1.35316 15.95624,-2.68343 1.36126,-1.21049 2.03888,-1.28418 3.17072,-0.34484 1.475,1.22415 10.72757,1.73738 12.42366,0.68914 0.51908,-0.32081 1.22067,-1.9388 1.55908,-3.59553 0.33842,-1.65673 0.88293,-4.30468 1.21003,-5.88433 0.39064,-1.8865 0.0886,-3.34489 -0.88024,-4.2499 -1.07329,-1.0026 -1.22801,-2.02734 -0.56816,-3.7629 0.88649,-2.33162 0.63482,-2.93886 -3.60429,-8.69684 -0.65517,-0.88991 -0.39783,-1.92014 0.81414,-3.25935 1.34384,-1.48493 1.60837,-2.83094 1.0946,-5.56958 -0.80522,-4.29222 -0.98099,-4.42614 -6.86785,-5.23303 -4.17446,-0.57217 -4.58293,-0.44305 -4.58293,1.44875 0,2.81769 -1.0588,3.30287 -9.35147,4.28516 -13.4587,1.59423 -15.14664,1.96348 -16.84666,3.68538 -4.65469,4.71462 -5.05437,28.77104 -0.62261,37.4744 0.50248,0.9868 2.02057,1.75 3.48092,1.75 2.34424,0 2.53293,-0.28447 1.98982,-3 z m 9.35,-49 c 0,-0.55 -0.64844,-1 -1.44098,-1 -0.79254,0 -1.7191,0.45 -2.05902,1 -0.33992,0.55 0.30852,1 1.44098,1 1.13246,0 2.05902,-0.45 2.05902,-1 z m 29.60346,-9.21845 c 0.6069,-0.39515 2.45304,-0.20904 4.10253,0.41358 1.68782,0.63708 3.82869,0.78492 4.89655,0.33813 1.0436,-0.43664 6.62246,-0.90707 12.39746,-1.04539 16.12376,-0.38619 23.55182,-1.78192 25.12472,-4.72091 0.95618,-1.78664 1.2323,-1.83851 2.58518,-0.48563 1.18746,1.18746 2.19247,1.29838 4.65238,0.51348 1.72575,-0.55065 4.15022,-0.95979 5.38772,-0.9092 1.67838,0.0686 2.26146,-0.47679 2.2951,-2.14681 0.0429,-2.1311 0.10307,-2.11376 1.25,0.36048 l 1.2049,2.59928 7.29096,-1.26083 c 4.01003,-0.69345 7.85012,-1.72489 8.53354,-2.29208 0.80787,-0.67047 1.75561,-0.69414 2.70904,-0.0677 0.8586,0.56417 5.40429,0.70322 10.96646,0.33545 5.225,-0.34548 12.875,-0.79395 17,-0.9966 18.08187,-0.88835 32.25529,-2.897154 35.53336,-5.036154 1.30412,-0.85096 3.09732,-1.0684 5.00004,-0.60628 5.7194,1.38911 15.7635,0.4591 22.4666,-2.08022 3.575,-1.35431 9.2,-3.45367 12.5,-4.66524 3.3,-1.21157 6.7104,-2.83872 7.5787,-3.61589 0.8683,-0.77718 2.0835,-1.41305 2.7004,-1.41305 0.6168,0 1.5802,-0.7875 2.1408,-1.75 0.5606,-0.9625 1.033,-1.40646 1.0497,-0.98658 0.017,0.41988 1.6604,0.0824 3.6525,-0.75 1.9922,-0.83238 4.2643,-1.51342 5.0492,-1.51342 3.076,0 17.3022,-7.53924 17.9261,-9.5 0.8116,-2.55055 5.377,-6.41715 7.6323,-6.46404 1.9007,-0.0395 5.7661,-6.76699 5.0482,-8.78596 -0.2445,-0.6875 0.01,-1.25 0.5572,-1.25 1.5954,0 4.9315,-6.13323 5.7113,-10.5 0.3929,-2.2 1.12,-4.51328 1.6157,-5.14063 1.105,-1.39852 1.1303,-2.41634 0.6197,-24.91949 l -0.4098,-18.0601203 -4.5995,-6.4398797 c -8.0173,-11.22506 -11.956,-13.7435 -17.71,-11.3241 -1.8431,0.77496 -4.2987,2.47258 -5.4568,3.77248 -4.7289,5.30776 -22.9297,15.6117697 -27.5763,15.6117697 -1.0513,0 -2.1678,0.41494 -2.4812,0.92208 -0.3135,0.50715 -3.6025,1.91705 -7.3091,3.13311001 -3.7065,1.21606999 -7.1891,2.54247999 -7.7391,2.94759999 -0.55,0.40511 -2.8,1.30812 -5,2.00668 -2.2,0.69856 -8.05,3.18162 -13,5.5179103 -9.10548,4.29758 -17.52174,7.64121 -27.44438,10.90316 -5.15179,1.6936 -8.02224,3.33064 -15.9535,9.09844 -2.60164,1.89197 -4.71066,2.49006 -9,2.55226 -3.08117,0.0447 -6.72712,0.26065 -8.10212,0.47993 -1.375,0.21927 -5.425,0.85639 -9,1.4158 -3.575,0.55942 -13.025,1.28234 -21,1.60648 -10.66003,0.43327 -14.93299,0.97719 -16.13502,2.05388 -1.1724,1.05015 -3.57741,1.38899 -8.5,1.19755 -6.61646,-0.25732 -41.34476,2.90876 -42.36341,3.86215 -1.36404,1.27665 3.81303,3.05128 12.13286,4.15899 5.09809,0.67877 9.81816,1.68967 10.48905,2.24646 0.83291,0.69125 1.83699,0.6269 3.16569,-0.20289 3.19796,-1.99716 4.78126,-0.45556 7.17361,6.98465 1.24955,3.88611 2.8941,7.58202 3.65456,8.21315 1.60012,1.32797 1.85256,3.90261 0.38266,3.90261 -0.58848,0 -1,3.50876 -1,8.52628 0,4.68945 -0.54187,11.38279 -1.20417,14.87408 -1.10789,5.84029 -1.53405,6.5565 -5.33037,8.958234 -7.5754,4.79255 -14.36407,6.52297 -26.46546,6.74601 -4.22134,0.0778 -10.35137,-0.75354 -15.7401,-2.13463 -7.52957,-1.92977 -9.15828,-4.65208 -10.81664,-18.079534 -1.47423,-11.9365 -1.22558,-17.53204 1.2838,-28.89044 1.73534,-7.8548 3.50271,-11 6.18117,-11 0.87905,0 2.85351,-1.32994 4.38771,-2.95542 l 2.78944,-2.95542 -4.53765,0.26363 c -2.76312,0.16054 -5.69698,1.12077 -7.50219,2.45542 -1.63051,1.20549 -3.44731,2.19179 -4.03734,2.19179 -0.59003,0 -2.50084,3.0375 -4.24625,6.75 -3.05281,6.49338 -3.17084,7.22522 -3.10471,19.25 0.0378,6.875 0.63514,15.875 1.32741,20 1.1835,7.052114 1.56631,7.804034 6.4102,12.591074 2.83335,2.80008 5.8161,5.32067 6.62835,5.6013 2.19614,0.75878 18.30293,0.42084 19.58026,-0.41082 z m 98.13295,-18.031554 c -1.45968,-1.10862 -1.5556,-2.8335 -0.84804,-15.25 0.4388,-7.7 0.65993,-18.25865 0.49141,-23.46366 -0.31296,-9.66634 0.13252,-10.98667 3.71853,-11.02103 1.84912,-0.0177 5.08902,7.33293 4.22478,9.58511 -0.31111,0.81074 0.22603,2.34887 1.19364,3.41807 1.38789,1.5336 1.50822,2.24652 0.56999,3.37702 -0.65411,0.78816 -1.06442,2.4841 -0.91179,3.76875 0.25461,2.14296 -0.67077,14.71856 -1.78638,24.27629 -0.71208,6.10064 -3.10044,8.00692 -6.65214,5.30945 z m -13.06974,-4.41667 c -0.36667,-0.36666 -0.66944,-1.37916 -0.67283,-2.25 -0.003,-0.87083 -0.63285,-2.7845 -1.39881,-4.2526 -0.9694,-1.85803 -1.25115,-4.87925 -0.92706,-9.94096 0.29831,-4.65904 0.0281,-8.08907 -0.75193,-9.54664 -0.96165,-1.79687 -0.95472,-2.5916 0.033,-3.78171 0.68777,-0.82871 2.05102,-4.09404 3.02943,-7.25628 1.90058,-6.14268 3.67769,-8.03481 6.52146,-6.94355 1.58109,0.60672 1.70115,1.61932 1.11564,9.40915 -2.05538,27.34549 -2.03167,25.60292 -0.33956,24.9536 0.86778,-0.333 2.09489,0.0176 2.72691,0.77916 0.89885,1.08304 0.69697,1.66699 -0.92689,2.6811 -1.1418,0.71307 -2.07601,1.99825 -2.07601,2.85595 0,2.99241 -4.36453,5.26159 -6.33333,3.29278 z m 116.45963,-16.09733 c -0.588,-1.09864 -0.593,-3.45608 -0.013,-6.25 0.5119,-2.4673 1.1898,-10.561 1.5066,-17.986 0.4944,-11.59209 0.2952,-14.49987 -1.4096,-20.57487 -2.1164,-7.54149 -1.6413,-10.42513 1.7173,-10.42513 2.3162,0 3.7854,1.78626 6.7732,8.23523 2.1945,4.73662 2.376,6.31349 2.2435,19.50159 -0.1538,15.31112 -1.5978,24.11822 -4.4758,27.29843 -2.2084,2.44026 -5.0944,2.53162 -6.3418,0.20075 z m -99.1263,-35.736 c 0,-1.42241 0.57737,-2.5 1.33948,-2.5 0.73672,0 1.85207,1.125 2.47857,2.5 1.04823,2.30061 0.9414,2.5 -1.33949,2.5 -1.97713,0 -2.47856,-0.50577 -2.47856,-2.5 z m -76.85811,51.27041 c 1.81057,-2.92955 1.97947,-13.1231 0.36593,-22.08453 -1.93722,-10.75909 -2.80422,-12.78948 -4.66618,-10.92752 -0.6829,0.6829 -2.96021,1.24164 -5.06069,1.24164 -3.57431,0 -3.77884,0.16021 -3.19159,2.5 0.38661,1.5404 0.20201,2.5 -0.48095,2.5 -2.15149,0 -2.60841,-0.52552 -2.60841,-3 0,-2.43482 -0.1825,-2.49829 -7,-2.43439 -3.85,0.0361 -9.24563,0.28405 -11.9903,0.55103 -5.96583,0.58031 -6.8037,1.83901 -8.42192,12.65192 -1.36949,9.15096 -1.37151,13.11909 -0.009,17.02859 1.31518,3.77271 2.29362,3.90264 25.88949,3.43782 10.92588,-0.21523 16.70579,-0.70815 17.17327,-1.46456 z m -33.96521,-5.32323 c 0.45227,-2.17211 2.22702,-2.30502 2.63295,-0.19718 0.2108,1.0946 -0.27967,1.75 -1.30963,1.75 -0.96073,0 -1.51197,-0.64684 -1.32332,-1.55282 z m 18.36603,-14.37808 c -0.31644,-0.512 -0.11799,-1.21356 0.44098,-1.55902 0.55897,-0.34546 1.01631,0.0734 1.01631,0.9309 0,1.75653 -0.60006,2.01516 -1.45729,0.62812 z m -12.30802,-38.45388 c 1.16549,-1.76917 0.93052,-2.3401 -1.86955,-4.54264 -4.84411,-3.81038 -7.48376,-1.62219 -4.72182,3.91425 1.23923,2.4841 1.96394,2.95755 3.69893,2.4165 1.18676,-0.37009 2.48836,-1.17474 2.89244,-1.78811 z m 46.67111,-5.61522 c 1.63689,0 3.21169,-0.38109 3.49956,-0.84687 0.28787,-0.46578 2.66173,-0.52235 5.27525,-0.12572 4.37102,0.66335 4.96275,0.49538 7.38332,-2.09584 2.4463,-2.61878 3.08197,-2.79178 9.03377,-2.45859 3.52126,0.19713 8.8773,-0.21062 11.9023,-0.9061 4.54336,-1.04458 5.43712,-1.5952 5.13849,-3.1657 -0.19883,-1.04565 -0.58398,-4.36719 -0.85589,-7.3811903 -0.3475,-3.85198 -1.05709,-5.87416 -2.38849,-6.80670999 -2.22806,-1.56059001 -2.43405,-3.52028001 -0.53563,-5.09583001 0.85503,-0.70961 1.39086,-3.41147 1.44586,-7.2905297 0.0674,-4.75108 0.54552,-6.62122 2.087,-8.1627 2.92567,-2.92568 4.71367,-0.8721 5.53105,6.35261 1.1321,10.0063897 3.6606,7.0290097 2.8039,-3.30167 -0.49203,-5.93315 -0.46289,-5.90423 -5.73677,-5.6949 -0.28076,0.0111 -1.96826,-0.73492 -3.75,-1.65791 -1.78174,-0.923 -4.36452,-1.83274 -5.73952,-2.02165 -3.63013,-0.49872 -5.14177,-0.89243 -8.5,-2.21382 -1.65,-0.64924 -4.35,-1.68945 -6,-2.31157 -4.82108,-1.81776 -11.35901,-4.73528 -21.1302,-9.42926 -5.02161,-2.41233 -10.07928,-4.38605 -11.23927,-4.38605 -1.15999,0 -4.476,0.89936 -7.36891,1.99858 -3.46817,1.3178 -6.38082,1.78828 -8.55072,1.38121 -2.18843,-0.41056 -3.86374,-0.13287 -5.00089,0.82889 -0.94051,0.79545 -3.6317,1.99473 -5.98042,2.66506 -2.34873,0.67032 -4.81948,2.09796 -5.49055,3.17252 -0.67107,1.07456 -1.78689,1.95374 -2.47959,1.95374 -0.6927,0 -1.25945,0.42719 -1.25945,0.94931 0,0.52213 -1.30555,2.20963 -2.90122,3.75 -1.69648,1.6377 -4.47876,6.74557 -6.70024,12.30069 -3.10924,7.7750797 -3.86745,11.0433497 -4.17585,17.9999997 -0.49383,11.1393603 -0.29409,16.3208003 0.66634,17.2855203 0.43011,0.43204 2.38911,-0.69296 4.35334,-2.5 l 3.57132,-3.28552 0.62476,-11.4518203 c 0.34361,-6.2985 0.89991,-12.5984997 1.23621,-13.9999997 1.33293,-5.55486 5.38751,-12.02931 8.58053,-13.70161 9.04944,-4.73949 26.74964,-6.88388 31.44214,-3.80923 1.82053,1.19286 2.81877,1.34656 3.60957,0.55576 1.67851,-1.67851 2.38358,-1.36546 5.17893,2.29944 3.23717,4.24414 3.46964,5.39116 4.0752,20.1074597 0.27159,6.60000001 0.67384,13.43587 0.89391,15.19082 0.22006,1.7549603 -0.003,3.3299603 -0.49631,3.5000003 -0.49304,0.17005 -1.1745,2.0679 -1.51437,4.21744 -0.71106,4.49731 -2.41821,6.59174 -5.37283,6.59174 -1.13929,0 -2.07143,0.1882 -2.07143,0.41821 0,0.23002 -0.31585,1.2413 -0.70188,2.24729 -0.67356,1.75527 -0.59428,1.75857 1.96481,0.0818 1.46669,-0.96102 4.00598,-1.7473 5.64287,-1.7473 z m 3.9067,-3.68311 c 0.72187,-0.28887 1.58438,-0.25335 1.91667,0.0789 0.33229,0.33229 -0.25834,0.56864 -1.3125,0.52522 -1.16495,-0.048 -1.4019,-0.28494 -0.60417,-0.60416 z m -37.4857,-5.02173 c 2.11403,0.81123 24.7912,-2.01316 26.0186,-3.24056 1.67554,-1.67554 1.53434,-28.29663 -0.1802,-33.9764 -0.92582,-3.06695 -1.5892,-4.01019 -2.16504,-3.07846 -0.56516,0.91445 -3.65103,1.45072 -9.6652,1.67964 -4.85923,0.18496 -11.21287,1.02482 -14.11921,1.86635 -4.34283,1.25747 -5.52979,2.1023 -6.66253,4.74216 -2.45244,5.71542 -3.87164,14.3562597 -3.10209,18.8871297 0.40402,2.37874 0.672,6.27881 0.59551,8.6668203 -0.19091,5.95948 1.14325,7.40901 5.0332,5.46844 1.64815,-0.8222 3.55928,-1.27901 4.24696,-1.01512 z m 99.1732,-1.87549 c 2.2,-0.37783 5.35,-1.38189 7,-2.23125 1.65,-0.84936 4.8,-1.8699403 7,-2.2679603 5.75975,-1.04204 16.2534,-4.67393 21.64738,-7.49224 2.55606,-1.33551999 5.48102,-2.42471999 6.50002,-2.42042999 1.0189,0.004 6.8026,-2.44821001 12.8526,-5.44998001 6.05,-3.00176 14.15,-6.2452497 18,-7.2077397 3.85,-0.9625 7.7104,-2.33501 8.5787,-3.05003 0.8683,-0.71502 2.4433,-1.30744 3.5,-1.31649 1.0567,-0.009 3.7213,-1.0457 5.9213,-2.30368 3.206,-1.8332 3.9348,-2.77283 3.6717,-4.73355 -0.1805,-1.34548 -0.4118,-8.29632 -0.5139,-15.44632 -0.1612,-11.28229 -0.4913,-13.64265 -2.4985,-17.8637 -1.2721,-2.67504 -3.134,-5.07842 -4.1375,-5.34085 -2.2163,-0.57957 -4.1764,-7.2678 -2.8334,-9.6677 0.5011,-0.89526 1.6761,-1.63227 2.6113,-1.63779 2.2949,-0.0136 13.1966,11.93209 13.2149,14.48034 0.01,1.11633 0.6853,3.9555 1.5052,6.30926 0.9535,2.73736 1.3086,6.25091 0.9855,9.75 -0.2779,3.00874 -0.7342,7.94544 -1.014,10.97044 -0.3966,4.28751 -0.2004,5.5 0.8898,5.5 1.7987,0 5.6189,-8.09454 5.6189,-11.90577 0,-1.61016 0.3375,-3.07756 0.75,-3.2609 0.4125,-0.18333 1.875,-2.56469 3.25,-5.2919 2.0845,-4.1345 2.5,-6.3781 2.5,-13.5 0,-5.28553 -0.6797,-10.82857 -1.7832,-14.54143 -4.1823,-14.0721 -7.0128,-23.19522 -8.0665,-25.999996 -1.1266,-2.99839 -1.2907,-3.5938 -1.5253,-5.53333 -0.2846,-2.35249 -7.1546,-7.83524 -12.2069,-9.74196 -6.0157,-2.27027 -8.4971,-3.53792 -14.5048,-7.40982 -2.2477,-1.44862 -5.0117,-2.78709 -6.1422,-2.97437 -2.0887,-0.34602 -6.2711,2.63971 -6.2711,4.47675 0,0.55401 -2.5054,5.03843 -5.5676,9.96537 -5.0362,8.10323 -5.5046,9.3304 -4.9084,12.85962 0.3626,2.145846 2.1375,6.704186 3.9442,10.129636 2.6725,5.06664 3.4185,7.86449 4.0003,15.0029 0.7669,9.40944 0.1723,11.38074 -6.6593,22.07759 -1.27,1.98871 -3.8842,6.14 -5.8092,9.2251 -6.353,10.18158 -20.76215,18.92043 -35.44401,21.49601 -3.96567,0.69569 -15.18761,1.70097 -21.12204,1.89216 -0.72091,0.0232 -1.00354,5.78111 -0.87296,17.7843397 0.10621,9.7625 0.24843,17.8928203 0.31606,18.0673903 0.0676,0.17456 0.91045,0.0861 1.87295,-0.19668 0.9625,-0.28274 3.55,-0.82321 5.75,-1.20104 z m 90.7,-111.61967 c -1.9246,-1.924586 -1.4973,-5.799996 0.6395,-5.799996 1.6594,0 4.1605,3.63521 4.1605,6.047046 0,1.35516 -3.3713,1.18164 -4.8,-0.24705 z M 781.12157,4.3455257 c -0.25354,-0.97297 -0.47766,-0.41903 -0.49804,1.23097 -0.0204,1.65 0.18706,2.44606 0.46099,1.76903 0.27392,-0.67703 0.29059,-2.02703 0.0371,-3 z m 0.0351,-8.01903 c -0.39863,-1.66667 -0.45484,-1.66667 -1.18031,0 -0.41896,0.9625 -0.41896,2.5375 0,3.50000001 0.72547,1.66666999 0.78168,1.66666999 1.18031,0 0.23021,-0.96250001 0.23021,-2.53750001 0,-3.50000001 z M 800.88588,-129.8544 c 0.31644,-0.512 0.11799,-1.21356 -0.44098,-1.55902 -0.55897,-0.34546 -1.01631,0.0734 -1.01631,0.9309 0,1.75653 0.60006,2.01516 1.45729,0.62812 z m -4.4573,-1.88201 c 0,-1.53052 -5.83604,-6.40645 -6.88902,-5.75568 -0.62315,0.38513 0.26039,1.84357 2.16874,3.57993 3.26982,2.9751 4.72028,3.64368 4.72028,2.17575 z m -11.5,-7.18709 c -0.33992,-0.55 -1.37898,-0.99311 -2.30902,-0.98469 -1.45727,0.0132 -1.48367,0.14929 -0.19098,0.98469 1.95837,1.2656 3.28218,1.2656 2.5,0 z m -102.72397,-36.90937 c -1.88506,-2.69131 -2.96872,-1.60765 -1.53626,1.53627 0.69263,1.52015 1.45836,2.07497 2.04883,1.4845 0.59048,-0.59048 0.39891,-1.71945 -0.51257,-3.02077 z m -3.60758,-6.32218 c -0.74207,-0.74207 -0.87221,-0.35164 -0.43724,1.31171 0.35361,1.3522 0.8069,1.8055 1.05655,1.05655 0.24048,-0.72144 -0.0382,-1.78716 -0.61931,-2.36826 z m -8.71201,-18.4792 c -0.97426,-1.80909 -2.15052,-3.28925 -2.61391,-3.28925 -1.2611,0 -1.02125,0.96414 0.65747,2.64286 0.825,0.825 1.5,2.51785 1.5,3.7619 0,2.88452 1.38369,4.35009 1.86391,1.97421 0.20015,-0.99026 -0.43321,-3.28063 -1.40747,-5.08972 z m -12.46141,-21.03925 c -0.003,-0.9625 -1.11155,-3.1 -2.46403,-4.75 l -2.45907,-3 -0.036,2.92126 c -0.0344,2.79319 2.33579,6.57874 4.11903,6.57874 0.46475,0 0.84277,-0.7875 0.84004,-1.75 z m 191.58127,-19.00704 c -0.9019,-0.90189 -6.5803,4.90211 -6.5492,6.69413 0.017,1.00761 1.2918,0.20214 3.5867,-2.26703 1.9578,-2.10647 3.2909,-4.09867 2.9625,-4.4271 z M 221.42858,845.5765 c 0,-0.825 0.45,-1.5 1,-1.5 0.55,0 1,0.675 1,1.5 0,0.825 -0.45,1.5 -1,1.5 -0.55,0 -1,-0.675 -1,-1.5 z m -8.55179,-89.7744 c -0.33955,-0.8848 -0.44711,-2.4226 -0.23904,-3.4172 0.33118,-1.583 0.54018,-1.5146 1.67722,0.549 0.91483,1.6603 0.98551,2.6707 0.23903,3.4172 -0.74647,0.7465 -1.2424,0.5841 -1.67721,-0.549 z M -2.0186343,736.1619 c -0.32198,-0.521 -0.15917,-1.2106 0.3618,-1.5326 0.52097,-0.322 1.21065001,-0.1592 1.53262001,0.3618 0.32198,0.521 0.15917,1.2106 -0.3618,1.5326 -0.52097001,0.322 -1.21065001,0.1592 -1.53262001,-0.3618 z M 182.64628,632.922 c 0.24642,-0.74002 1.25007,-1.50098 2.23033,-1.691 1.14002,-0.221 1.62085,0.13937 1.33427,1 -0.24642,0.74002 -1.25007,1.50098 -2.23033,1.691 -1.14002,0.221 -1.62085,-0.13937 -1.33427,-1 z m 169.7823,-450.8455 c 0,-0.55 0.45,-1 1,-1 0.55,0 1,0.45 1,1 0,0.55 -0.45,1 -1,1 -0.55,0 -1,-0.45 -1,-1 z"
       style="fill:#000000" />
  </g>
</svg>